ISO-10303-21;
HEADER;
/* Generated by software containing ST-Developer
 * from STEP Tools, Inc. (www.steptools.com) 
 */

FILE_DESCRIPTION(
/* description */ (''),
/* implementation_level */ '2;1');

FILE_NAME(
/* name */ 'arm holder.step',
/* time_stamp */ '2026-08-07T19:05:44+03:00',
/* author */ (''),
/* organization */ (''),
/* preprocessor_version */ 'ST-DEVELOPER v20.1',
/* originating_system */ 'Autodesk Translation Framework v15.8.0.0',
/* authorisation */ '');

FILE_SCHEMA (('AUTOMOTIVE_DESIGN { 1 0 10303 214 3 1 1 }'));
ENDSEC;

DATA;
#10=MECHANICAL_DESIGN_GEOMETRIC_PRESENTATION_REPRESENTATION('',(#13,#14),
#1323);
#11=SHAPE_REPRESENTATION_RELATIONSHIP('SRR','None',#1330,#12);
#12=ADVANCED_BREP_SHAPE_REPRESENTATION('',(#15,#16),#1322);
#13=STYLED_ITEM('',(#1340),#15);
#14=STYLED_ITEM('',(#1340),#16);
#15=MANIFOLD_SOLID_BREP('Body1',#698);
#16=MANIFOLD_SOLID_BREP('Body2',#699);
#17=CONICAL_SURFACE('',#734,2.,0.785398163397449);
#18=CONICAL_SURFACE('',#742,2.,0.785398163397449);
#19=CONICAL_SURFACE('',#772,2.,0.785398163397449);
#20=CONICAL_SURFACE('',#779,2.,0.785398163397449);
#21=FACE_BOUND('',#113,.T.);
#22=FACE_BOUND('',#114,.T.);
#23=FACE_BOUND('',#115,.T.);
#24=FACE_BOUND('',#126,.T.);
#25=FACE_BOUND('',#127,.T.);
#26=FACE_BOUND('',#128,.T.);
#27=FACE_BOUND('',#132,.T.);
#28=FACE_BOUND('',#133,.T.);
#29=FACE_BOUND('',#135,.T.);
#30=FACE_BOUND('',#136,.T.);
#31=FACE_BOUND('',#140,.T.);
#32=FACE_BOUND('',#141,.T.);
#33=FACE_BOUND('',#142,.T.);
#34=FACE_BOUND('',#156,.T.);
#35=FACE_BOUND('',#157,.T.);
#36=FACE_BOUND('',#159,.T.);
#37=FACE_BOUND('',#160,.T.);
#38=B_SPLINE_CURVE_WITH_KNOTS('',3,(#1015,#1016,#1017,#1018,#1019,#1020,
#1021,#1022,#1023,#1024),.UNSPECIFIED.,.F.,.F.,(4,2,2,2,4),(-0.135156857580333,
-0.0879449194950014,-0.0439724597475007,-0.0219862298737503,-1.11022302462516E-16),
 .UNSPECIFIED.);
#39=B_SPLINE_CURVE_WITH_KNOTS('',3,(#1028,#1029,#1030,#1031,#1032,#1033,
#1034,#1035,#1036,#1037,#1038,#1039,#1040,#1041,#1042,#1043,#1044,#1045,
#1046,#1047,#1048,#1049,#1050,#1051,#1052,#1053),.UNSPECIFIED.,.F.,.F.,
(4,2,2,2,2,2,2,2,2,2,2,2,4),(-1.11022302462516E-16,0.0219862298737503,0.0439724597475006,
0.0879449194950014,0.148508084265706,0.209071249036412,0.262492865053295,
0.315914481070178,0.358546071465627,0.401177661861076,0.443809252256525,
0.486440842651974,0.524263423823275),.UNSPECIFIED.);
#40=B_SPLINE_CURVE_WITH_KNOTS('',3,(#1081,#1082,#1083,#1084,#1085,#1086,
#1087,#1088),.UNSPECIFIED.,.F.,.F.,(4,2,2,4),(-1.63006928243144,-1.59224746643758,
-1.53514438192004,-1.4780412974025),.UNSPECIFIED.);
#41=B_SPLINE_CURVE_WITH_KNOTS('',3,(#1090,#1091,#1092,#1093,#1094,#1095,
#1096,#1097),.UNSPECIFIED.,.F.,.F.,(4,2,2,4),(-1.4780412974025,-1.42093821288496,
-1.36383512836743,-1.32601331237324),.UNSPECIFIED.);
#42=B_SPLINE_CURVE_WITH_KNOTS('',3,(#1104,#1105,#1106,#1107,#1108,#1109,
#1110,#1111),.UNSPECIFIED.,.F.,.F.,(4,2,2,4),(1.32601331237323,1.36383512836743,
1.42093821288496,1.4780412974025),.UNSPECIFIED.);
#43=B_SPLINE_CURVE_WITH_KNOTS('',3,(#1113,#1114,#1115,#1116,#1117,#1118,
#1119,#1120),.UNSPECIFIED.,.F.,.F.,(4,2,2,4),(1.4780412974025,1.53514438192004,
1.59224746643758,1.63006928243144),.UNSPECIFIED.);
#44=B_SPLINE_CURVE_WITH_KNOTS('',3,(#1167,#1168,#1169,#1170,#1171,#1172,
#1173,#1174,#1175,#1176),.UNSPECIFIED.,.F.,.F.,(4,2,2,2,4),(0.403504722934331,
0.428826997996525,0.454149273058718,0.504793823183106,0.540321502308987),
 .UNSPECIFIED.);
#45=B_SPLINE_CURVE_WITH_KNOTS('',3,(#1180,#1181,#1182,#1183,#1184,#1185,
#1186,#1187,#1188,#1189,#1190,#1191,#1192,#1193,#1194,#1195,#1196,#1197,
#1198,#1199,#1200,#1201,#1202,#1203,#1204,#1205,#1206,#1207,#1208,#1209,
#1210,#1211,#1212),.UNSPECIFIED.,.F.,.F.,(4,2,2,2,2,2,3,2,2,2,2,2,2,2,2,
4),(-0.266687943559676,-0.218910789550292,-0.135605956415028,-0.0992206726964379,
-0.0628353889778481,-0.0314176944889241,0.,0.0314176944889241,0.0628353889778481,
0.0992206726964379,0.135605956415028,0.218910789550292,0.302215622685557,
0.352860172809944,0.378182447872138,0.403504722934331),.UNSPECIFIED.);
#46=B_SPLINE_CURVE_WITH_KNOTS('',3,(#1253,#1254,#1255,#1256,#1257,#1258,
#1259,#1260),.UNSPECIFIED.,.F.,.F.,(4,2,2,4),(-0.450763058530684,-0.41294124253683,
-0.355838158019291,-0.298735073501752),.UNSPECIFIED.);
#47=B_SPLINE_CURVE_WITH_KNOTS('',3,(#1262,#1263,#1264,#1265,#1266,#1267,
#1268,#1269),.UNSPECIFIED.,.F.,.F.,(4,2,2,4),(-0.298735073501752,-0.241631988984213,
-0.184528904466675,-0.146707088472484),.UNSPECIFIED.);
#48=B_SPLINE_CURVE_WITH_KNOTS('',3,(#1275,#1276,#1277,#1278,#1279,#1280,
#1281,#1282),.UNSPECIFIED.,.F.,.F.,(4,2,2,4),(0.146707088472479,0.184528904466673,
0.241631988984212,0.298735073501751),.UNSPECIFIED.);
#49=B_SPLINE_CURVE_WITH_KNOTS('',3,(#1284,#1285,#1286,#1287,#1288,#1289,
#1290,#1291),.UNSPECIFIED.,.F.,.F.,(4,2,2,4),(0.298735073501751,0.355838158019289,
0.412941242536828,0.450763058530688),.UNSPECIFIED.);
#50=PLANE('',#716);
#51=PLANE('',#720);
#52=PLANE('',#721);
#53=PLANE('',#725);
#54=PLANE('',#751);
#55=PLANE('',#752);
#56=PLANE('',#753);
#57=PLANE('',#754);
#58=PLANE('',#755);
#59=PLANE('',#756);
#60=PLANE('',#760);
#61=PLANE('',#765);
#62=PLANE('',#768);
#63=PLANE('',#784);
#64=PLANE('',#785);
#65=PLANE('',#786);
#66=PLANE('',#787);
#67=PLANE('',#788);
#68=FACE_OUTER_BOUND('',#106,.T.);
#69=FACE_OUTER_BOUND('',#107,.T.);
#70=FACE_OUTER_BOUND('',#108,.T.);
#71=FACE_OUTER_BOUND('',#109,.T.);
#72=FACE_OUTER_BOUND('',#110,.T.);
#73=FACE_OUTER_BOUND('',#111,.T.);
#74=FACE_OUTER_BOUND('',#112,.T.);
#75=FACE_OUTER_BOUND('',#116,.T.);
#76=FACE_OUTER_BOUND('',#117,.T.);
#77=FACE_OUTER_BOUND('',#118,.T.);
#78=FACE_OUTER_BOUND('',#119,.T.);
#79=FACE_OUTER_BOUND('',#120,.T.);
#80=FACE_OUTER_BOUND('',#121,.T.);
#81=FACE_OUTER_BOUND('',#122,.T.);
#82=FACE_OUTER_BOUND('',#123,.T.);
#83=FACE_OUTER_BOUND('',#124,.T.);
#84=FACE_OUTER_BOUND('',#125,.T.);
#85=FACE_OUTER_BOUND('',#129,.T.);
#86=FACE_OUTER_BOUND('',#130,.T.);
#87=FACE_OUTER_BOUND('',#131,.T.);
#88=FACE_OUTER_BOUND('',#134,.T.);
#89=FACE_OUTER_BOUND('',#137,.T.);
#90=FACE_OUTER_BOUND('',#138,.T.);
#91=FACE_OUTER_BOUND('',#139,.T.);
#92=FACE_OUTER_BOUND('',#143,.T.);
#93=FACE_OUTER_BOUND('',#144,.T.);
#94=FACE_OUTER_BOUND('',#145,.T.);
#95=FACE_OUTER_BOUND('',#146,.T.);
#96=FACE_OUTER_BOUND('',#147,.T.);
#97=FACE_OUTER_BOUND('',#148,.T.);
#98=FACE_OUTER_BOUND('',#149,.T.);
#99=FACE_OUTER_BOUND('',#150,.T.);
#100=FACE_OUTER_BOUND('',#151,.T.);
#101=FACE_OUTER_BOUND('',#152,.T.);
#102=FACE_OUTER_BOUND('',#153,.T.);
#103=FACE_OUTER_BOUND('',#154,.T.);
#104=FACE_OUTER_BOUND('',#155,.T.);
#105=FACE_OUTER_BOUND('',#158,.T.);
#106=EDGE_LOOP('',(#452,#453,#454,#455));
#107=EDGE_LOOP('',(#456));
#108=EDGE_LOOP('',(#457,#458,#459,#460));
#109=EDGE_LOOP('',(#461));
#110=EDGE_LOOP('',(#462,#463));
#111=EDGE_LOOP('',(#464,#465,#466,#467,#468,#469,#470,#471));
#112=EDGE_LOOP('',(#472,#473,#474,#475,#476));
#113=EDGE_LOOP('',(#477));
#114=EDGE_LOOP('',(#478));
#115=EDGE_LOOP('',(#479));
#116=EDGE_LOOP('',(#480,#481,#482,#483));
#117=EDGE_LOOP('',(#484,#485,#486,#487,#488,#489,#490));
#118=EDGE_LOOP('',(#491,#492,#493,#494,#495,#496,#497,#498,#499));
#119=EDGE_LOOP('',(#500,#501,#502,#503));
#120=EDGE_LOOP('',(#504,#505,#506,#507,#508,#509));
#121=EDGE_LOOP('',(#510,#511,#512,#513));
#122=EDGE_LOOP('',(#514,#515,#516,#517,#518,#519,#520));
#123=EDGE_LOOP('',(#521,#522,#523,#524));
#124=EDGE_LOOP('',(#525,#526,#527,#528));
#125=EDGE_LOOP('',(#529,#530,#531,#532));
#126=EDGE_LOOP('',(#533));
#127=EDGE_LOOP('',(#534));
#128=EDGE_LOOP('',(#535));
#129=EDGE_LOOP('',(#536,#537,#538,#539));
#130=EDGE_LOOP('',(#540,#541,#542,#543));
#131=EDGE_LOOP('',(#544,#545,#546,#547,#548));
#132=EDGE_LOOP('',(#549));
#133=EDGE_LOOP('',(#550));
#134=EDGE_LOOP('',(#551,#552,#553,#554,#555));
#135=EDGE_LOOP('',(#556));
#136=EDGE_LOOP('',(#557,#558,#559,#560,#561));
#137=EDGE_LOOP('',(#562,#563,#564,#565,#566));
#138=EDGE_LOOP('',(#567,#568));
#139=EDGE_LOOP('',(#569,#570,#571,#572));
#140=EDGE_LOOP('',(#573));
#141=EDGE_LOOP('',(#574));
#142=EDGE_LOOP('',(#575));
#143=EDGE_LOOP('',(#576,#577,#578,#579));
#144=EDGE_LOOP('',(#580));
#145=EDGE_LOOP('',(#581,#582,#583,#584));
#146=EDGE_LOOP('',(#585));
#147=EDGE_LOOP('',(#586,#587,#588,#589));
#148=EDGE_LOOP('',(#590,#591,#592,#593,#594,#595));
#149=EDGE_LOOP('',(#596,#597,#598,#599,#600,#601,#602,#603,#604));
#150=EDGE_LOOP('',(#605,#606,#607,#608,#609));
#151=EDGE_LOOP('',(#610,#611,#612,#613));
#152=EDGE_LOOP('',(#614,#615,#616,#617));
#153=EDGE_LOOP('',(#618,#619,#620,#621));
#154=EDGE_LOOP('',(#622,#623,#624,#625));
#155=EDGE_LOOP('',(#626,#627,#628,#629,#630));
#156=EDGE_LOOP('',(#631));
#157=EDGE_LOOP('',(#632));
#158=EDGE_LOOP('',(#633,#634,#635,#636,#637));
#159=EDGE_LOOP('',(#638));
#160=EDGE_LOOP('',(#639,#640,#641,#642,#643));
#161=LINE('',#994,#207);
#162=LINE('',#1001,#208);
#163=LINE('',#1007,#209);
#164=LINE('',#1013,#210);
#165=LINE('',#1025,#211);
#166=LINE('',#1027,#212);
#167=LINE('',#1067,#213);
#168=LINE('',#1071,#214);
#169=LINE('',#1077,#215);
#170=LINE('',#1100,#216);
#171=LINE('',#1123,#217);
#172=LINE('',#1127,#218);
#173=LINE('',#1130,#219);
#174=LINE('',#1134,#220);
#175=LINE('',#1139,#221);
#176=LINE('',#1143,#222);
#177=LINE('',#1145,#223);
#178=LINE('',#1146,#224);
#179=LINE('',#1149,#225);
#180=LINE('',#1151,#226);
#181=LINE('',#1152,#227);
#182=LINE('',#1155,#228);
#183=LINE('',#1157,#229);
#184=LINE('',#1158,#230);
#185=LINE('',#1160,#231);
#186=LINE('',#1161,#232);
#187=LINE('',#1178,#233);
#188=LINE('',#1217,#234);
#189=LINE('',#1219,#235);
#190=LINE('',#1221,#236);
#191=LINE('',#1222,#237);
#192=LINE('',#1230,#238);
#193=LINE('',#1235,#239);
#194=LINE('',#1240,#240);
#195=LINE('',#1244,#241);
#196=LINE('',#1249,#242);
#197=LINE('',#1294,#243);
#198=LINE('',#1298,#244);
#199=LINE('',#1304,#245);
#200=LINE('',#1307,#246);
#201=LINE('',#1308,#247);
#202=LINE('',#1311,#248);
#203=LINE('',#1313,#249);
#204=LINE('',#1314,#250);
#205=LINE('',#1316,#251);
#206=LINE('',#1317,#252);
#207=VECTOR('',#795,1.15);
#208=VECTOR('',#804,1.15);
#209=VECTOR('',#811,10.);
#210=VECTOR('',#818,1.15);
#211=VECTOR('',#819,10.);
#212=VECTOR('',#820,10.);
#213=VECTOR('',#835,10.);
#214=VECTOR('',#838,10.);
#215=VECTOR('',#845,2.);
#216=VECTOR('',#852,2.43496538020435);
#217=VECTOR('',#859,0.999999999999996);
#218=VECTOR('',#864,2.);
#219=VECTOR('',#869,0.999999999999996);
#220=VECTOR('',#874,7.75);
#221=VECTOR('',#879,2.5);
#222=VECTOR('',#884,10.);
#223=VECTOR('',#885,10.);
#224=VECTOR('',#886,10.);
#225=VECTOR('',#889,10.);
#226=VECTOR('',#890,10.);
#227=VECTOR('',#891,10.);
#228=VECTOR('',#894,10.);
#229=VECTOR('',#895,10.);
#230=VECTOR('',#896,10.);
#231=VECTOR('',#899,10.);
#232=VECTOR('',#900,10.);
#233=VECTOR('',#907,1.15);
#234=VECTOR('',#914,10.);
#235=VECTOR('',#915,10.);
#236=VECTOR('',#916,10.);
#237=VECTOR('',#917,10.);
#238=VECTOR('',#926,1.15);
#239=VECTOR('',#933,1.15);
#240=VECTOR('',#938,10.);
#241=VECTOR('',#941,10.);
#242=VECTOR('',#946,2.);
#243=VECTOR('',#957,2.43496538020435);
#244=VECTOR('',#962,2.);
#245=VECTOR('',#969,2.5);
#246=VECTOR('',#974,10.);
#247=VECTOR('',#975,10.);
#248=VECTOR('',#978,10.);
#249=VECTOR('',#979,10.);
#250=VECTOR('',#980,10.);
#251=VECTOR('',#983,10.);
#252=VECTOR('',#984,10.);
#253=CIRCLE('',#714,1.15);
#254=CIRCLE('',#715,1.15);
#255=CIRCLE('',#718,1.15);
#256=CIRCLE('',#719,1.15);
#257=CIRCLE('',#722,1.15);
#258=CIRCLE('',#724,1.15);
#259=CIRCLE('',#726,7.75);
#260=CIRCLE('',#727,7.75);
#261=CIRCLE('',#728,0.999999999999996);
#262=CIRCLE('',#729,2.43496538020435);
#263=CIRCLE('',#730,0.999999999999996);
#264=CIRCLE('',#732,8.);
#265=CIRCLE('',#733,8.);
#266=CIRCLE('',#735,0.999999999999996);
#267=CIRCLE('',#736,3.);
#268=CIRCLE('',#737,3.);
#269=CIRCLE('',#739,2.43496538020435);
#270=CIRCLE('',#740,2.43496538020435);
#271=CIRCLE('',#743,0.999999999999996);
#272=CIRCLE('',#744,3.);
#273=CIRCLE('',#747,7.75);
#274=CIRCLE('',#749,2.5);
#275=CIRCLE('',#750,2.5);
#276=CIRCLE('',#758,1.15);
#277=CIRCLE('',#761,1.15);
#278=CIRCLE('',#762,1.15);
#279=CIRCLE('',#764,1.15);
#280=CIRCLE('',#767,1.15);
#281=CIRCLE('',#770,8.);
#282=CIRCLE('',#771,8.);
#283=CIRCLE('',#773,3.);
#284=CIRCLE('',#774,3.);
#285=CIRCLE('',#776,2.43496538020435);
#286=CIRCLE('',#777,2.43496538020435);
#287=CIRCLE('',#778,2.43496538020435);
#288=CIRCLE('',#780,3.);
#289=CIRCLE('',#782,2.5);
#290=CIRCLE('',#783,2.5);
#291=VERTEX_POINT('',#991);
#292=VERTEX_POINT('',#993);
#293=VERTEX_POINT('',#998);
#294=VERTEX_POINT('',#1000);
#295=VERTEX_POINT('',#1005);
#296=VERTEX_POINT('',#1006);
#297=VERTEX_POINT('',#1010);
#298=VERTEX_POINT('',#1012);
#299=VERTEX_POINT('',#1014);
#300=VERTEX_POINT('',#1026);
#301=VERTEX_POINT('',#1055);
#302=VERTEX_POINT('',#1058);
#303=VERTEX_POINT('',#1060);
#304=VERTEX_POINT('',#1062);
#305=VERTEX_POINT('',#1065);
#306=VERTEX_POINT('',#1066);
#307=VERTEX_POINT('',#1068);
#308=VERTEX_POINT('',#1070);
#309=VERTEX_POINT('',#1074);
#310=VERTEX_POINT('',#1076);
#311=VERTEX_POINT('',#1078);
#312=VERTEX_POINT('',#1080);
#313=VERTEX_POINT('',#1089);
#314=VERTEX_POINT('',#1101);
#315=VERTEX_POINT('',#1103);
#316=VERTEX_POINT('',#1112);
#317=VERTEX_POINT('',#1125);
#318=VERTEX_POINT('',#1132);
#319=VERTEX_POINT('',#1136);
#320=VERTEX_POINT('',#1138);
#321=VERTEX_POINT('',#1142);
#322=VERTEX_POINT('',#1144);
#323=VERTEX_POINT('',#1148);
#324=VERTEX_POINT('',#1150);
#325=VERTEX_POINT('',#1154);
#326=VERTEX_POINT('',#1156);
#327=VERTEX_POINT('',#1165);
#328=VERTEX_POINT('',#1166);
#329=VERTEX_POINT('',#1177);
#330=VERTEX_POINT('',#1215);
#331=VERTEX_POINT('',#1216);
#332=VERTEX_POINT('',#1218);
#333=VERTEX_POINT('',#1220);
#334=VERTEX_POINT('',#1223);
#335=VERTEX_POINT('',#1225);
#336=VERTEX_POINT('',#1228);
#337=VERTEX_POINT('',#1233);
#338=VERTEX_POINT('',#1238);
#339=VERTEX_POINT('',#1239);
#340=VERTEX_POINT('',#1241);
#341=VERTEX_POINT('',#1243);
#342=VERTEX_POINT('',#1247);
#343=VERTEX_POINT('',#1248);
#344=VERTEX_POINT('',#1250);
#345=VERTEX_POINT('',#1252);
#346=VERTEX_POINT('',#1261);
#347=VERTEX_POINT('',#1272);
#348=VERTEX_POINT('',#1274);
#349=VERTEX_POINT('',#1283);
#350=VERTEX_POINT('',#1293);
#351=VERTEX_POINT('',#1297);
#352=VERTEX_POINT('',#1301);
#353=VERTEX_POINT('',#1303);
#354=VERTEX_POINT('',#1310);
#355=VERTEX_POINT('',#1312);
#356=EDGE_CURVE('',#291,#291,#253,.T.);
#357=EDGE_CURVE('',#291,#292,#161,.T.);
#358=EDGE_CURVE('',#292,#292,#254,.T.);
#359=EDGE_CURVE('',#293,#293,#255,.T.);
#360=EDGE_CURVE('',#293,#294,#162,.T.);
#361=EDGE_CURVE('',#294,#294,#256,.T.);
#362=EDGE_CURVE('',#295,#296,#163,.T.);
#363=EDGE_CURVE('',#296,#295,#257,.T.);
#364=EDGE_CURVE('',#297,#297,#258,.T.);
#365=EDGE_CURVE('',#297,#298,#164,.T.);
#366=EDGE_CURVE('',#299,#298,#38,.T.);
#367=EDGE_CURVE('',#296,#299,#165,.T.);
#368=EDGE_CURVE('',#300,#295,#166,.T.);
#369=EDGE_CURVE('',#298,#300,#39,.T.);
#370=EDGE_CURVE('',#301,#299,#259,.T.);
#371=EDGE_CURVE('',#300,#301,#260,.T.);
#372=EDGE_CURVE('',#302,#302,#261,.T.);
#373=EDGE_CURVE('',#303,#303,#262,.T.);
#374=EDGE_CURVE('',#304,#304,#263,.T.);
#375=EDGE_CURVE('',#305,#306,#167,.T.);
#376=EDGE_CURVE('',#307,#305,#264,.T.);
#377=EDGE_CURVE('',#307,#308,#168,.T.);
#378=EDGE_CURVE('',#306,#308,#265,.T.);
#379=EDGE_CURVE('',#309,#309,#266,.T.);
#380=EDGE_CURVE('',#309,#310,#169,.T.);
#381=EDGE_CURVE('',#310,#311,#267,.T.);
#382=EDGE_CURVE('',#312,#311,#40,.F.);
#383=EDGE_CURVE('',#313,#312,#41,.F.);
#384=EDGE_CURVE('',#313,#310,#268,.T.);
#385=EDGE_CURVE('',#303,#312,#170,.T.);
#386=EDGE_CURVE('',#314,#311,#269,.T.);
#387=EDGE_CURVE('',#314,#315,#42,.T.);
#388=EDGE_CURVE('',#315,#316,#43,.T.);
#389=EDGE_CURVE('',#313,#316,#270,.T.);
#390=EDGE_CURVE('',#302,#309,#171,.T.);
#391=EDGE_CURVE('',#317,#317,#271,.T.);
#392=EDGE_CURVE('',#317,#315,#172,.T.);
#393=EDGE_CURVE('',#314,#316,#272,.T.);
#394=EDGE_CURVE('',#304,#317,#173,.T.);
#395=EDGE_CURVE('',#318,#318,#273,.T.);
#396=EDGE_CURVE('',#318,#301,#174,.T.);
#397=EDGE_CURVE('',#319,#319,#274,.T.);
#398=EDGE_CURVE('',#319,#320,#175,.T.);
#399=EDGE_CURVE('',#320,#320,#275,.T.);
#400=EDGE_CURVE('',#321,#307,#176,.T.);
#401=EDGE_CURVE('',#322,#321,#177,.T.);
#402=EDGE_CURVE('',#308,#322,#178,.T.);
#403=EDGE_CURVE('',#323,#321,#179,.T.);
#404=EDGE_CURVE('',#324,#323,#180,.T.);
#405=EDGE_CURVE('',#322,#324,#181,.T.);
#406=EDGE_CURVE('',#324,#325,#182,.T.);
#407=EDGE_CURVE('',#326,#323,#183,.T.);
#408=EDGE_CURVE('',#325,#326,#184,.T.);
#409=EDGE_CURVE('',#325,#306,#185,.F.);
#410=EDGE_CURVE('',#305,#326,#186,.T.);
#411=EDGE_CURVE('',#327,#328,#44,.F.);
#412=EDGE_CURVE('',#328,#329,#187,.T.);
#413=EDGE_CURVE('',#329,#329,#276,.T.);
#414=EDGE_CURVE('',#328,#327,#45,.F.);
#415=EDGE_CURVE('',#330,#331,#188,.T.);
#416=EDGE_CURVE('',#331,#332,#189,.T.);
#417=EDGE_CURVE('',#332,#333,#190,.T.);
#418=EDGE_CURVE('',#330,#333,#191,.T.);
#419=EDGE_CURVE('',#334,#334,#277,.T.);
#420=EDGE_CURVE('',#335,#335,#278,.T.);
#421=EDGE_CURVE('',#336,#336,#279,.T.);
#422=EDGE_CURVE('',#336,#334,#192,.T.);
#423=EDGE_CURVE('',#337,#337,#280,.T.);
#424=EDGE_CURVE('',#337,#335,#193,.T.);
#425=EDGE_CURVE('',#338,#339,#194,.T.);
#426=EDGE_CURVE('',#339,#340,#281,.T.);
#427=EDGE_CURVE('',#341,#340,#195,.T.);
#428=EDGE_CURVE('',#341,#338,#282,.T.);
#429=EDGE_CURVE('',#342,#343,#196,.T.);
#430=EDGE_CURVE('',#344,#343,#283,.T.);
#431=EDGE_CURVE('',#344,#345,#46,.T.);
#432=EDGE_CURVE('',#345,#346,#47,.T.);
#433=EDGE_CURVE('',#343,#346,#284,.T.);
#434=EDGE_CURVE('',#344,#347,#285,.T.);
#435=EDGE_CURVE('',#348,#347,#48,.F.);
#436=EDGE_CURVE('',#349,#348,#49,.F.);
#437=EDGE_CURVE('',#349,#346,#286,.T.);
#438=EDGE_CURVE('',#345,#350,#197,.T.);
#439=EDGE_CURVE('',#350,#350,#287,.T.);
#440=EDGE_CURVE('',#351,#348,#198,.T.);
#441=EDGE_CURVE('',#349,#347,#288,.T.);
#442=EDGE_CURVE('',#352,#352,#289,.T.);
#443=EDGE_CURVE('',#352,#353,#199,.T.);
#444=EDGE_CURVE('',#353,#353,#290,.T.);
#445=EDGE_CURVE('',#340,#330,#200,.T.);
#446=EDGE_CURVE('',#333,#341,#201,.T.);
#447=EDGE_CURVE('',#331,#354,#202,.T.);
#448=EDGE_CURVE('',#354,#355,#203,.T.);
#449=EDGE_CURVE('',#355,#332,#204,.T.);
#450=EDGE_CURVE('',#338,#355,#205,.T.);
#451=EDGE_CURVE('',#354,#339,#206,.F.);
#452=ORIENTED_EDGE('',*,*,#356,.F.);
#453=ORIENTED_EDGE('',*,*,#357,.T.);
#454=ORIENTED_EDGE('',*,*,#358,.T.);
#455=ORIENTED_EDGE('',*,*,#357,.F.);
#456=ORIENTED_EDGE('',*,*,#358,.F.);
#457=ORIENTED_EDGE('',*,*,#359,.F.);
#458=ORIENTED_EDGE('',*,*,#360,.T.);
#459=ORIENTED_EDGE('',*,*,#361,.T.);
#460=ORIENTED_EDGE('',*,*,#360,.F.);
#461=ORIENTED_EDGE('',*,*,#361,.F.);
#462=ORIENTED_EDGE('',*,*,#362,.F.);
#463=ORIENTED_EDGE('',*,*,#363,.F.);
#464=ORIENTED_EDGE('',*,*,#364,.F.);
#465=ORIENTED_EDGE('',*,*,#365,.T.);
#466=ORIENTED_EDGE('',*,*,#366,.F.);
#467=ORIENTED_EDGE('',*,*,#367,.F.);
#468=ORIENTED_EDGE('',*,*,#363,.T.);
#469=ORIENTED_EDGE('',*,*,#368,.F.);
#470=ORIENTED_EDGE('',*,*,#369,.F.);
#471=ORIENTED_EDGE('',*,*,#365,.F.);
#472=ORIENTED_EDGE('',*,*,#368,.T.);
#473=ORIENTED_EDGE('',*,*,#362,.T.);
#474=ORIENTED_EDGE('',*,*,#367,.T.);
#475=ORIENTED_EDGE('',*,*,#370,.F.);
#476=ORIENTED_EDGE('',*,*,#371,.F.);
#477=ORIENTED_EDGE('',*,*,#372,.F.);
#478=ORIENTED_EDGE('',*,*,#373,.F.);
#479=ORIENTED_EDGE('',*,*,#374,.F.);
#480=ORIENTED_EDGE('',*,*,#375,.F.);
#481=ORIENTED_EDGE('',*,*,#376,.F.);
#482=ORIENTED_EDGE('',*,*,#377,.T.);
#483=ORIENTED_EDGE('',*,*,#378,.F.);
#484=ORIENTED_EDGE('',*,*,#379,.T.);
#485=ORIENTED_EDGE('',*,*,#380,.T.);
#486=ORIENTED_EDGE('',*,*,#381,.T.);
#487=ORIENTED_EDGE('',*,*,#382,.F.);
#488=ORIENTED_EDGE('',*,*,#383,.F.);
#489=ORIENTED_EDGE('',*,*,#384,.T.);
#490=ORIENTED_EDGE('',*,*,#380,.F.);
#491=ORIENTED_EDGE('',*,*,#373,.T.);
#492=ORIENTED_EDGE('',*,*,#385,.T.);
#493=ORIENTED_EDGE('',*,*,#382,.T.);
#494=ORIENTED_EDGE('',*,*,#386,.F.);
#495=ORIENTED_EDGE('',*,*,#387,.T.);
#496=ORIENTED_EDGE('',*,*,#388,.T.);
#497=ORIENTED_EDGE('',*,*,#389,.F.);
#498=ORIENTED_EDGE('',*,*,#383,.T.);
#499=ORIENTED_EDGE('',*,*,#385,.F.);
#500=ORIENTED_EDGE('',*,*,#372,.T.);
#501=ORIENTED_EDGE('',*,*,#390,.T.);
#502=ORIENTED_EDGE('',*,*,#379,.F.);
#503=ORIENTED_EDGE('',*,*,#390,.F.);
#504=ORIENTED_EDGE('',*,*,#391,.T.);
#505=ORIENTED_EDGE('',*,*,#392,.T.);
#506=ORIENTED_EDGE('',*,*,#387,.F.);
#507=ORIENTED_EDGE('',*,*,#393,.T.);
#508=ORIENTED_EDGE('',*,*,#388,.F.);
#509=ORIENTED_EDGE('',*,*,#392,.F.);
#510=ORIENTED_EDGE('',*,*,#374,.T.);
#511=ORIENTED_EDGE('',*,*,#394,.T.);
#512=ORIENTED_EDGE('',*,*,#391,.F.);
#513=ORIENTED_EDGE('',*,*,#394,.F.);
#514=ORIENTED_EDGE('',*,*,#395,.F.);
#515=ORIENTED_EDGE('',*,*,#396,.T.);
#516=ORIENTED_EDGE('',*,*,#370,.T.);
#517=ORIENTED_EDGE('',*,*,#366,.T.);
#518=ORIENTED_EDGE('',*,*,#369,.T.);
#519=ORIENTED_EDGE('',*,*,#371,.T.);
#520=ORIENTED_EDGE('',*,*,#396,.F.);
#521=ORIENTED_EDGE('',*,*,#397,.F.);
#522=ORIENTED_EDGE('',*,*,#398,.T.);
#523=ORIENTED_EDGE('',*,*,#399,.F.);
#524=ORIENTED_EDGE('',*,*,#398,.F.);
#525=ORIENTED_EDGE('',*,*,#377,.F.);
#526=ORIENTED_EDGE('',*,*,#400,.F.);
#527=ORIENTED_EDGE('',*,*,#401,.F.);
#528=ORIENTED_EDGE('',*,*,#402,.F.);
#529=ORIENTED_EDGE('',*,*,#401,.T.);
#530=ORIENTED_EDGE('',*,*,#403,.F.);
#531=ORIENTED_EDGE('',*,*,#404,.F.);
#532=ORIENTED_EDGE('',*,*,#405,.F.);
#533=ORIENTED_EDGE('',*,*,#356,.T.);
#534=ORIENTED_EDGE('',*,*,#359,.T.);
#535=ORIENTED_EDGE('',*,*,#364,.T.);
#536=ORIENTED_EDGE('',*,*,#406,.F.);
#537=ORIENTED_EDGE('',*,*,#404,.T.);
#538=ORIENTED_EDGE('',*,*,#407,.F.);
#539=ORIENTED_EDGE('',*,*,#408,.F.);
#540=ORIENTED_EDGE('',*,*,#375,.T.);
#541=ORIENTED_EDGE('',*,*,#409,.F.);
#542=ORIENTED_EDGE('',*,*,#408,.T.);
#543=ORIENTED_EDGE('',*,*,#410,.F.);
#544=ORIENTED_EDGE('',*,*,#409,.T.);
#545=ORIENTED_EDGE('',*,*,#378,.T.);
#546=ORIENTED_EDGE('',*,*,#402,.T.);
#547=ORIENTED_EDGE('',*,*,#405,.T.);
#548=ORIENTED_EDGE('',*,*,#406,.T.);
#549=ORIENTED_EDGE('',*,*,#395,.T.);
#550=ORIENTED_EDGE('',*,*,#397,.T.);
#551=ORIENTED_EDGE('',*,*,#376,.T.);
#552=ORIENTED_EDGE('',*,*,#410,.T.);
#553=ORIENTED_EDGE('',*,*,#407,.T.);
#554=ORIENTED_EDGE('',*,*,#403,.T.);
#555=ORIENTED_EDGE('',*,*,#400,.T.);
#556=ORIENTED_EDGE('',*,*,#399,.T.);
#557=ORIENTED_EDGE('',*,*,#384,.F.);
#558=ORIENTED_EDGE('',*,*,#389,.T.);
#559=ORIENTED_EDGE('',*,*,#393,.F.);
#560=ORIENTED_EDGE('',*,*,#386,.T.);
#561=ORIENTED_EDGE('',*,*,#381,.F.);
#562=ORIENTED_EDGE('',*,*,#411,.T.);
#563=ORIENTED_EDGE('',*,*,#412,.T.);
#564=ORIENTED_EDGE('',*,*,#413,.F.);
#565=ORIENTED_EDGE('',*,*,#412,.F.);
#566=ORIENTED_EDGE('',*,*,#414,.T.);
#567=ORIENTED_EDGE('',*,*,#411,.F.);
#568=ORIENTED_EDGE('',*,*,#414,.F.);
#569=ORIENTED_EDGE('',*,*,#415,.T.);
#570=ORIENTED_EDGE('',*,*,#416,.T.);
#571=ORIENTED_EDGE('',*,*,#417,.T.);
#572=ORIENTED_EDGE('',*,*,#418,.F.);
#573=ORIENTED_EDGE('',*,*,#413,.T.);
#574=ORIENTED_EDGE('',*,*,#419,.F.);
#575=ORIENTED_EDGE('',*,*,#420,.F.);
#576=ORIENTED_EDGE('',*,*,#421,.F.);
#577=ORIENTED_EDGE('',*,*,#422,.T.);
#578=ORIENTED_EDGE('',*,*,#419,.T.);
#579=ORIENTED_EDGE('',*,*,#422,.F.);
#580=ORIENTED_EDGE('',*,*,#421,.T.);
#581=ORIENTED_EDGE('',*,*,#423,.F.);
#582=ORIENTED_EDGE('',*,*,#424,.T.);
#583=ORIENTED_EDGE('',*,*,#420,.T.);
#584=ORIENTED_EDGE('',*,*,#424,.F.);
#585=ORIENTED_EDGE('',*,*,#423,.T.);
#586=ORIENTED_EDGE('',*,*,#425,.T.);
#587=ORIENTED_EDGE('',*,*,#426,.T.);
#588=ORIENTED_EDGE('',*,*,#427,.F.);
#589=ORIENTED_EDGE('',*,*,#428,.T.);
#590=ORIENTED_EDGE('',*,*,#429,.T.);
#591=ORIENTED_EDGE('',*,*,#430,.F.);
#592=ORIENTED_EDGE('',*,*,#431,.T.);
#593=ORIENTED_EDGE('',*,*,#432,.T.);
#594=ORIENTED_EDGE('',*,*,#433,.F.);
#595=ORIENTED_EDGE('',*,*,#429,.F.);
#596=ORIENTED_EDGE('',*,*,#431,.F.);
#597=ORIENTED_EDGE('',*,*,#434,.T.);
#598=ORIENTED_EDGE('',*,*,#435,.F.);
#599=ORIENTED_EDGE('',*,*,#436,.F.);
#600=ORIENTED_EDGE('',*,*,#437,.T.);
#601=ORIENTED_EDGE('',*,*,#432,.F.);
#602=ORIENTED_EDGE('',*,*,#438,.T.);
#603=ORIENTED_EDGE('',*,*,#439,.F.);
#604=ORIENTED_EDGE('',*,*,#438,.F.);
#605=ORIENTED_EDGE('',*,*,#440,.T.);
#606=ORIENTED_EDGE('',*,*,#435,.T.);
#607=ORIENTED_EDGE('',*,*,#441,.F.);
#608=ORIENTED_EDGE('',*,*,#436,.T.);
#609=ORIENTED_EDGE('',*,*,#440,.F.);
#610=ORIENTED_EDGE('',*,*,#442,.T.);
#611=ORIENTED_EDGE('',*,*,#443,.T.);
#612=ORIENTED_EDGE('',*,*,#444,.T.);
#613=ORIENTED_EDGE('',*,*,#443,.F.);
#614=ORIENTED_EDGE('',*,*,#427,.T.);
#615=ORIENTED_EDGE('',*,*,#445,.T.);
#616=ORIENTED_EDGE('',*,*,#418,.T.);
#617=ORIENTED_EDGE('',*,*,#446,.T.);
#618=ORIENTED_EDGE('',*,*,#447,.T.);
#619=ORIENTED_EDGE('',*,*,#448,.T.);
#620=ORIENTED_EDGE('',*,*,#449,.T.);
#621=ORIENTED_EDGE('',*,*,#416,.F.);
#622=ORIENTED_EDGE('',*,*,#425,.F.);
#623=ORIENTED_EDGE('',*,*,#450,.T.);
#624=ORIENTED_EDGE('',*,*,#448,.F.);
#625=ORIENTED_EDGE('',*,*,#451,.T.);
#626=ORIENTED_EDGE('',*,*,#415,.F.);
#627=ORIENTED_EDGE('',*,*,#445,.F.);
#628=ORIENTED_EDGE('',*,*,#426,.F.);
#629=ORIENTED_EDGE('',*,*,#451,.F.);
#630=ORIENTED_EDGE('',*,*,#447,.F.);
#631=ORIENTED_EDGE('',*,*,#444,.F.);
#632=ORIENTED_EDGE('',*,*,#439,.T.);
#633=ORIENTED_EDGE('',*,*,#428,.F.);
#634=ORIENTED_EDGE('',*,*,#446,.F.);
#635=ORIENTED_EDGE('',*,*,#417,.F.);
#636=ORIENTED_EDGE('',*,*,#449,.F.);
#637=ORIENTED_EDGE('',*,*,#450,.F.);
#638=ORIENTED_EDGE('',*,*,#442,.F.);
#639=ORIENTED_EDGE('',*,*,#430,.T.);
#640=ORIENTED_EDGE('',*,*,#433,.T.);
#641=ORIENTED_EDGE('',*,*,#437,.F.);
#642=ORIENTED_EDGE('',*,*,#441,.T.);
#643=ORIENTED_EDGE('',*,*,#434,.F.);
#644=CYLINDRICAL_SURFACE('',#713,1.15);
#645=CYLINDRICAL_SURFACE('',#717,1.15);
#646=CYLINDRICAL_SURFACE('',#723,1.15);
#647=CYLINDRICAL_SURFACE('',#731,8.);
#648=CYLINDRICAL_SURFACE('',#738,2.43496538020435);
#649=CYLINDRICAL_SURFACE('',#741,0.999999999999996);
#650=CYLINDRICAL_SURFACE('',#745,0.999999999999996);
#651=CYLINDRICAL_SURFACE('',#746,7.75);
#652=CYLINDRICAL_SURFACE('',#748,2.5);
#653=CYLINDRICAL_SURFACE('',#757,1.15);
#654=CYLINDRICAL_SURFACE('',#759,7.75);
#655=CYLINDRICAL_SURFACE('',#763,1.15);
#656=CYLINDRICAL_SURFACE('',#766,1.15);
#657=CYLINDRICAL_SURFACE('',#769,8.);
#658=CYLINDRICAL_SURFACE('',#775,2.43496538020435);
#659=CYLINDRICAL_SURFACE('',#781,2.5);
#660=ADVANCED_FACE('',(#68),#644,.F.);
#661=ADVANCED_FACE('',(#69),#50,.T.);
#662=ADVANCED_FACE('',(#70),#645,.F.);
#663=ADVANCED_FACE('',(#71),#51,.T.);
#664=ADVANCED_FACE('',(#72),#52,.T.);
#665=ADVANCED_FACE('',(#73),#646,.F.);
#666=ADVANCED_FACE('',(#74,#21,#22,#23),#53,.F.);
#667=ADVANCED_FACE('',(#75),#647,.T.);
#668=ADVANCED_FACE('',(#76),#17,.F.);
#669=ADVANCED_FACE('',(#77),#648,.F.);
#670=ADVANCED_FACE('',(#78),#649,.F.);
#671=ADVANCED_FACE('',(#79),#18,.F.);
#672=ADVANCED_FACE('',(#80),#650,.F.);
#673=ADVANCED_FACE('',(#81),#651,.F.);
#674=ADVANCED_FACE('',(#82),#652,.F.);
#675=ADVANCED_FACE('',(#83),#54,.T.);
#676=ADVANCED_FACE('',(#84,#24,#25,#26),#55,.T.);
#677=ADVANCED_FACE('',(#85),#56,.T.);
#678=ADVANCED_FACE('',(#86),#57,.T.);
#679=ADVANCED_FACE('',(#87,#27,#28),#58,.T.);
#680=ADVANCED_FACE('',(#88,#29,#30),#59,.F.);
#681=ADVANCED_FACE('',(#89),#653,.F.);
#682=ADVANCED_FACE('',(#90),#654,.T.);
#683=ADVANCED_FACE('',(#91,#31,#32,#33),#60,.F.);
#684=ADVANCED_FACE('',(#92),#655,.F.);
#685=ADVANCED_FACE('',(#93),#61,.F.);
#686=ADVANCED_FACE('',(#94),#656,.F.);
#687=ADVANCED_FACE('',(#95),#62,.F.);
#688=ADVANCED_FACE('',(#96),#657,.T.);
#689=ADVANCED_FACE('',(#97),#19,.F.);
#690=ADVANCED_FACE('',(#98),#658,.F.);
#691=ADVANCED_FACE('',(#99),#20,.F.);
#692=ADVANCED_FACE('',(#100),#659,.F.);
#693=ADVANCED_FACE('',(#101),#63,.F.);
#694=ADVANCED_FACE('',(#102),#64,.F.);
#695=ADVANCED_FACE('',(#103),#65,.F.);
#696=ADVANCED_FACE('',(#104,#34,#35),#66,.F.);
#697=ADVANCED_FACE('',(#105,#36,#37),#67,.T.);
#698=CLOSED_SHELL('',(#660,#661,#662,#663,#664,#665,#666,#667,#668,#669,
#670,#671,#672,#673,#674,#675,#676,#677,#678,#679,#680));
#699=CLOSED_SHELL('',(#681,#682,#683,#684,#685,#686,#687,#688,#689,#690,
#691,#692,#693,#694,#695,#696,#697));
#700=DERIVED_UNIT_ELEMENT(#702,1.);
#701=DERIVED_UNIT_ELEMENT(#1325,-3.);
#702=(
MASS_UNIT()
NAMED_UNIT(*)
SI_UNIT(.KILO.,.GRAM.)
);
#703=DERIVED_UNIT((#700,#701));
#704=MEASURE_REPRESENTATION_ITEM('density measure',
POSITIVE_RATIO_MEASURE(7850.),#703);
#705=PROPERTY_DEFINITION_REPRESENTATION(#710,#707);
#706=PROPERTY_DEFINITION_REPRESENTATION(#711,#708);
#707=REPRESENTATION('material name',(#709),#1322);
#708=REPRESENTATION('density',(#704),#1322);
#709=DESCRIPTIVE_REPRESENTATION_ITEM('Steel','Steel');
#710=PROPERTY_DEFINITION('material property','material name',#1332);
#711=PROPERTY_DEFINITION('material property','density of part',#1332);
#712=AXIS2_PLACEMENT_3D('',#989,#789,#790);
#713=AXIS2_PLACEMENT_3D('',#990,#791,#792);
#714=AXIS2_PLACEMENT_3D('',#992,#793,#794);
#715=AXIS2_PLACEMENT_3D('',#995,#796,#797);
#716=AXIS2_PLACEMENT_3D('',#996,#798,#799);
#717=AXIS2_PLACEMENT_3D('',#997,#800,#801);
#718=AXIS2_PLACEMENT_3D('',#999,#802,#803);
#719=AXIS2_PLACEMENT_3D('',#1002,#805,#806);
#720=AXIS2_PLACEMENT_3D('',#1003,#807,#808);
#721=AXIS2_PLACEMENT_3D('',#1004,#809,#810);
#722=AXIS2_PLACEMENT_3D('',#1008,#812,#813);
#723=AXIS2_PLACEMENT_3D('',#1009,#814,#815);
#724=AXIS2_PLACEMENT_3D('',#1011,#816,#817);
#725=AXIS2_PLACEMENT_3D('',#1054,#821,#822);
#726=AXIS2_PLACEMENT_3D('',#1056,#823,#824);
#727=AXIS2_PLACEMENT_3D('',#1057,#825,#826);
#728=AXIS2_PLACEMENT_3D('',#1059,#827,#828);
#729=AXIS2_PLACEMENT_3D('',#1061,#829,#830);
#730=AXIS2_PLACEMENT_3D('',#1063,#831,#832);
#731=AXIS2_PLACEMENT_3D('',#1064,#833,#834);
#732=AXIS2_PLACEMENT_3D('',#1069,#836,#837);
#733=AXIS2_PLACEMENT_3D('',#1072,#839,#840);
#734=AXIS2_PLACEMENT_3D('',#1073,#841,#842);
#735=AXIS2_PLACEMENT_3D('',#1075,#843,#844);
#736=AXIS2_PLACEMENT_3D('',#1079,#846,#847);
#737=AXIS2_PLACEMENT_3D('',#1098,#848,#849);
#738=AXIS2_PLACEMENT_3D('',#1099,#850,#851);
#739=AXIS2_PLACEMENT_3D('',#1102,#853,#854);
#740=AXIS2_PLACEMENT_3D('',#1121,#855,#856);
#741=AXIS2_PLACEMENT_3D('',#1122,#857,#858);
#742=AXIS2_PLACEMENT_3D('',#1124,#860,#861);
#743=AXIS2_PLACEMENT_3D('',#1126,#862,#863);
#744=AXIS2_PLACEMENT_3D('',#1128,#865,#866);
#745=AXIS2_PLACEMENT_3D('',#1129,#867,#868);
#746=AXIS2_PLACEMENT_3D('',#1131,#870,#871);
#747=AXIS2_PLACEMENT_3D('',#1133,#872,#873);
#748=AXIS2_PLACEMENT_3D('',#1135,#875,#876);
#749=AXIS2_PLACEMENT_3D('',#1137,#877,#878);
#750=AXIS2_PLACEMENT_3D('',#1140,#880,#881);
#751=AXIS2_PLACEMENT_3D('',#1141,#882,#883);
#752=AXIS2_PLACEMENT_3D('',#1147,#887,#888);
#753=AXIS2_PLACEMENT_3D('',#1153,#892,#893);
#754=AXIS2_PLACEMENT_3D('',#1159,#897,#898);
#755=AXIS2_PLACEMENT_3D('',#1162,#901,#902);
#756=AXIS2_PLACEMENT_3D('',#1163,#903,#904);
#757=AXIS2_PLACEMENT_3D('',#1164,#905,#906);
#758=AXIS2_PLACEMENT_3D('',#1179,#908,#909);
#759=AXIS2_PLACEMENT_3D('',#1213,#910,#911);
#760=AXIS2_PLACEMENT_3D('',#1214,#912,#913);
#761=AXIS2_PLACEMENT_3D('',#1224,#918,#919);
#762=AXIS2_PLACEMENT_3D('',#1226,#920,#921);
#763=AXIS2_PLACEMENT_3D('',#1227,#922,#923);
#764=AXIS2_PLACEMENT_3D('',#1229,#924,#925);
#765=AXIS2_PLACEMENT_3D('',#1231,#927,#928);
#766=AXIS2_PLACEMENT_3D('',#1232,#929,#930);
#767=AXIS2_PLACEMENT_3D('',#1234,#931,#932);
#768=AXIS2_PLACEMENT_3D('',#1236,#934,#935);
#769=AXIS2_PLACEMENT_3D('',#1237,#936,#937);
#770=AXIS2_PLACEMENT_3D('',#1242,#939,#940);
#771=AXIS2_PLACEMENT_3D('',#1245,#942,#943);
#772=AXIS2_PLACEMENT_3D('',#1246,#944,#945);
#773=AXIS2_PLACEMENT_3D('',#1251,#947,#948);
#774=AXIS2_PLACEMENT_3D('',#1270,#949,#950);
#775=AXIS2_PLACEMENT_3D('',#1271,#951,#952);
#776=AXIS2_PLACEMENT_3D('',#1273,#953,#954);
#777=AXIS2_PLACEMENT_3D('',#1292,#955,#956);
#778=AXIS2_PLACEMENT_3D('',#1295,#958,#959);
#779=AXIS2_PLACEMENT_3D('',#1296,#960,#961);
#780=AXIS2_PLACEMENT_3D('',#1299,#963,#964);
#781=AXIS2_PLACEMENT_3D('',#1300,#965,#966);
#782=AXIS2_PLACEMENT_3D('',#1302,#967,#968);
#783=AXIS2_PLACEMENT_3D('',#1305,#970,#971);
#784=AXIS2_PLACEMENT_3D('',#1306,#972,#973);
#785=AXIS2_PLACEMENT_3D('',#1309,#976,#977);
#786=AXIS2_PLACEMENT_3D('',#1315,#981,#982);
#787=AXIS2_PLACEMENT_3D('',#1318,#985,#986);
#788=AXIS2_PLACEMENT_3D('',#1319,#987,#988);
#789=DIRECTION('axis',(0.,0.,1.));
#790=DIRECTION('refdir',(1.,0.,0.));
#791=DIRECTION('center_axis',(0.,1.,0.));
#792=DIRECTION('ref_axis',(1.,0.,3.66594702740232E-45));
#793=DIRECTION('center_axis',(-2.18915024034978E-9,1.,-1.85037170770859E-15));
#794=DIRECTION('ref_axis',(1.,2.18915024034978E-9,0.));
#795=DIRECTION('',(0.,1.,0.));
#796=DIRECTION('center_axis',(0.,1.,0.));
#797=DIRECTION('ref_axis',(1.,0.,3.66594702740232E-45));
#798=DIRECTION('center_axis',(0.,-1.,0.));
#799=DIRECTION('ref_axis',(1.,0.,3.66594702740232E-45));
#800=DIRECTION('center_axis',(0.,1.,0.));
#801=DIRECTION('ref_axis',(1.,0.,3.66594702740232E-45));
#802=DIRECTION('center_axis',(-2.18915024034978E-9,1.,-1.85037170770859E-15));
#803=DIRECTION('ref_axis',(1.,2.18915024034978E-9,0.));
#804=DIRECTION('',(0.,1.,0.));
#805=DIRECTION('center_axis',(0.,1.,0.));
#806=DIRECTION('ref_axis',(1.,0.,3.66594702740232E-45));
#807=DIRECTION('center_axis',(0.,-1.,0.));
#808=DIRECTION('ref_axis',(1.,0.,3.66594702740232E-45));
#809=DIRECTION('center_axis',(0.,-1.,0.));
#810=DIRECTION('ref_axis',(1.,0.,3.66594702740232E-45));
#811=DIRECTION('',(-1.,0.,-1.06437106006674E-16));
#812=DIRECTION('center_axis',(0.,1.,0.));
#813=DIRECTION('ref_axis',(1.,0.,3.66594702740232E-45));
#814=DIRECTION('center_axis',(0.,1.,0.));
#815=DIRECTION('ref_axis',(1.,0.,3.66594702740232E-45));
#816=DIRECTION('center_axis',(-2.18915024034978E-9,1.,-1.85037170770859E-15));
#817=DIRECTION('ref_axis',(1.,2.18915024034978E-9,0.));
#818=DIRECTION('',(0.,1.,0.));
#819=DIRECTION('',(0.,-1.,0.));
#820=DIRECTION('',(0.,1.,0.));
#821=DIRECTION('center_axis',(-1.06437106006674E-16,1.79166390620108E-15,
1.));
#822=DIRECTION('ref_axis',(-1.,7.7334610042869E-39,-1.06437106006674E-16));
#823=DIRECTION('center_axis',(-1.06437106006674E-16,1.79166390620108E-15,
1.));
#824=DIRECTION('ref_axis',(-1.,6.24869622593602E-33,-1.06437106006674E-16));
#825=DIRECTION('center_axis',(-1.06437106006674E-16,1.79166390620108E-15,
1.));
#826=DIRECTION('ref_axis',(-1.,6.24869622593602E-33,-1.06437106006674E-16));
#827=DIRECTION('center_axis',(1.06437106006674E-16,-1.79166390620108E-15,
-1.));
#828=DIRECTION('ref_axis',(-1.,7.73346109186806E-39,-1.06437106006674E-16));
#829=DIRECTION('center_axis',(1.06437106006674E-16,-1.79166390620108E-15,
-1.));
#830=DIRECTION('ref_axis',(-1.,7.73346126703037E-39,-1.06437106006674E-16));
#831=DIRECTION('center_axis',(1.06437106006674E-16,-1.79166390620108E-15,
-1.));
#832=DIRECTION('ref_axis',(-1.,7.73346109186806E-39,-1.06437106006674E-16));
#833=DIRECTION('center_axis',(-3.66594702740232E-45,1.85037170770859E-15,
1.));
#834=DIRECTION('ref_axis',(-1.,1.96948217338592E-31,-4.03037443664929E-45));
#835=DIRECTION('',(3.66594702740232E-45,-1.85037170770859E-15,-1.));
#836=DIRECTION('center_axis',(-1.06437106006674E-16,1.79166390620108E-15,
1.));
#837=DIRECTION('ref_axis',(-1.,7.73346126703037E-39,-1.06437106006674E-16));
#838=DIRECTION('',(3.66594702740232E-45,-1.77635683940025E-15,-1.));
#839=DIRECTION('center_axis',(1.06437106006674E-16,-1.79166390620108E-15,
-1.));
#840=DIRECTION('ref_axis',(-1.,7.73346126703037E-39,-1.06437106006674E-16));
#841=DIRECTION('center_axis',(-3.66594702740232E-45,1.66533453693774E-15,
1.));
#842=DIRECTION('ref_axis',(-1.,1.86863617987563E-31,-3.97713746413415E-45));
#843=DIRECTION('center_axis',(1.06437106006674E-16,-1.79166390620108E-15,
-1.));
#844=DIRECTION('ref_axis',(-1.,6.24869622593602E-33,-1.06437106006674E-16));
#845=DIRECTION('',(0.707106781186548,1.26416494963638E-15,0.707106781186547));
#846=DIRECTION('center_axis',(-1.06437106006674E-16,1.79166390620108E-15,
1.));
#847=DIRECTION('ref_axis',(-1.,6.24869622593582E-33,-1.06437106006674E-16));
#848=DIRECTION('center_axis',(-1.06437106006674E-16,1.79166390620108E-15,
1.));
#849=DIRECTION('ref_axis',(-1.,6.24869622593582E-33,-1.06437106006674E-16));
#850=DIRECTION('center_axis',(-3.66594702740232E-45,1.85037170770859E-15,
1.));
#851=DIRECTION('ref_axis',(-1.,1.96948217338592E-31,-4.03037443664929E-45));
#852=DIRECTION('',(-3.66594702740232E-45,1.85037170770859E-15,1.));
#853=DIRECTION('center_axis',(1.06437106006674E-16,-1.79166390620108E-15,
-1.));
#854=DIRECTION('ref_axis',(-1.,7.73346126703037E-39,-1.06437106006674E-16));
#855=DIRECTION('center_axis',(1.06437106006674E-16,-1.79166390620108E-15,
-1.));
#856=DIRECTION('ref_axis',(-1.,7.73346126703037E-39,-1.06437106006674E-16));
#857=DIRECTION('center_axis',(-3.66594702740232E-45,1.85037170770859E-15,
1.));
#858=DIRECTION('ref_axis',(-1.,1.96948217338592E-31,-4.03037443664929E-45));
#859=DIRECTION('',(-3.66594702740232E-45,1.85037170770859E-15,1.));
#860=DIRECTION('center_axis',(-3.66594702740232E-45,1.66533453693774E-15,
1.));
#861=DIRECTION('ref_axis',(-1.,1.86863617987563E-31,-3.97713746413415E-45));
#862=DIRECTION('center_axis',(1.06437106006674E-16,-1.79166390620108E-15,
-1.));
#863=DIRECTION('ref_axis',(-1.,6.24869622593602E-33,-1.06437106006674E-16));
#864=DIRECTION('',(0.707106781186548,1.26416494963638E-15,0.707106781186547));
#865=DIRECTION('center_axis',(-1.06437106006674E-16,1.79166390620108E-15,
1.));
#866=DIRECTION('ref_axis',(-1.,6.24869622593582E-33,-1.06437106006674E-16));
#867=DIRECTION('center_axis',(-3.66594702740232E-45,1.85037170770859E-15,
1.));
#868=DIRECTION('ref_axis',(-1.,1.96948217338592E-31,-4.03037443664929E-45));
#869=DIRECTION('',(-3.66594702740232E-45,1.85037170770859E-15,1.));
#870=DIRECTION('center_axis',(-3.66594702740232E-45,1.85037170770859E-15,
1.));
#871=DIRECTION('ref_axis',(-1.,1.96948217338592E-31,-4.03037443664929E-45));
#872=DIRECTION('center_axis',(-1.06437106006674E-16,1.79166390620108E-15,
1.));
#873=DIRECTION('ref_axis',(-1.,7.7334610042869E-39,-1.06437106006674E-16));
#874=DIRECTION('',(-3.66594702740232E-45,1.85037170770859E-15,1.));
#875=DIRECTION('center_axis',(-3.66594702740232E-45,1.85037170770859E-15,
1.));
#876=DIRECTION('ref_axis',(-1.,1.96948217338592E-31,-4.03037443664929E-45));
#877=DIRECTION('center_axis',(-1.06437106006674E-16,1.79166390620108E-15,
1.));
#878=DIRECTION('ref_axis',(-1.,7.73346126703037E-39,-1.06437106006674E-16));
#879=DIRECTION('',(-3.66594702740232E-45,1.85037170770859E-15,1.));
#880=DIRECTION('center_axis',(1.06437106006674E-16,-1.79166390620108E-15,
-1.));
#881=DIRECTION('ref_axis',(-1.,7.73346126703037E-39,-1.06437106006674E-16));
#882=DIRECTION('center_axis',(1.,-1.90699528846117E-31,4.01881204025253E-45));
#883=DIRECTION('ref_axis',(1.90699528846117E-31,1.,-1.79166390620108E-15));
#884=DIRECTION('',(1.90699528846117E-31,1.,-1.79166390620108E-15));
#885=DIRECTION('',(-3.66594702740232E-45,1.85037170770859E-15,1.));
#886=DIRECTION('',(-1.90699528846117E-31,-1.,1.79166390620108E-15));
#887=DIRECTION('center_axis',(2.18915024034978E-9,-1.,1.85037170770859E-15));
#888=DIRECTION('ref_axis',(1.,2.18915024034978E-9,1.04372733946917E-16));
#889=DIRECTION('',(1.,2.18915024034978E-9,1.04372733946917E-16));
#890=DIRECTION('',(-3.66594702740232E-45,1.85037170770859E-15,1.));
#891=DIRECTION('',(-1.,-2.18915024034978E-9,-1.04372733946917E-16));
#892=DIRECTION('center_axis',(-0.990497795656752,0.137528603567097,-3.63111244963642E-45));
#893=DIRECTION('ref_axis',(-0.137528603567097,-0.990497795656752,-5.04172575429591E-46));
#894=DIRECTION('',(0.137528603567097,0.990497795656752,5.04172575429591E-46));
#895=DIRECTION('',(-0.137528603567097,-0.990497795656752,-5.04172575429591E-46));
#896=DIRECTION('',(-3.66594702740232E-45,0.,1.));
#897=DIRECTION('center_axis',(-2.3475936827595E-11,1.,-8.60615408286065E-56));
#898=DIRECTION('ref_axis',(-1.,-2.3475936827595E-11,4.53801632955055E-16));
#899=DIRECTION('',(-1.,-2.3475936827595E-11,-7.39163723225172E-32));
#900=DIRECTION('',(-1.,-2.3475936827595E-11,-7.39163723225172E-32));
#901=DIRECTION('center_axis',(7.39163723268095E-32,-1.82839315762987E-31,
-1.));
#902=DIRECTION('ref_axis',(-1.,0.,-7.39163723268095E-32));
#903=DIRECTION('center_axis',(7.39163723268095E-32,-1.82839315762987E-31,
-1.));
#904=DIRECTION('ref_axis',(-1.,0.,-7.39163723268095E-32));
#905=DIRECTION('center_axis',(0.,-1.,0.));
#906=DIRECTION('ref_axis',(1.,0.,-3.66594702740232E-45));
#907=DIRECTION('',(0.,-1.,0.));
#908=DIRECTION('center_axis',(-2.18915024034978E-9,1.,1.85037170770859E-15));
#909=DIRECTION('ref_axis',(1.,2.18915024034978E-9,0.));
#910=DIRECTION('center_axis',(0.,-1.77635683940025E-15,1.));
#911=DIRECTION('ref_axis',(-1.,1.95318977446861E-31,3.46956201452395E-46));
#912=DIRECTION('center_axis',(-2.18915024034978E-9,1.,1.85037170770859E-15));
#913=DIRECTION('ref_axis',(1.,2.18915024034978E-9,-1.04372733946917E-16));
#914=DIRECTION('',(-1.,-2.18915024034978E-9,1.04372733946917E-16));
#915=DIRECTION('',(-3.66594702740232E-45,1.85037170770859E-15,-1.));
#916=DIRECTION('',(1.,2.18915024034978E-9,-1.04372733946917E-16));
#917=DIRECTION('',(-3.66594702740232E-45,1.85037170770859E-15,-1.));
#918=DIRECTION('center_axis',(2.18915024034978E-9,-1.,-1.85037170770859E-15));
#919=DIRECTION('ref_axis',(1.,2.18915024034978E-9,0.));
#920=DIRECTION('center_axis',(2.18915024034978E-9,-1.,-1.85037170770859E-15));
#921=DIRECTION('ref_axis',(1.,2.18915024034978E-9,0.));
#922=DIRECTION('center_axis',(0.,-1.,0.));
#923=DIRECTION('ref_axis',(1.,0.,-3.66594702740232E-45));
#924=DIRECTION('center_axis',(0.,-1.,0.));
#925=DIRECTION('ref_axis',(1.,0.,-3.66594702740232E-45));
#926=DIRECTION('',(0.,-1.,0.));
#927=DIRECTION('center_axis',(0.,1.,0.));
#928=DIRECTION('ref_axis',(1.,0.,-3.66594702740232E-45));
#929=DIRECTION('center_axis',(0.,-1.,0.));
#930=DIRECTION('ref_axis',(1.,0.,-3.66594702740232E-45));
#931=DIRECTION('center_axis',(0.,-1.,0.));
#932=DIRECTION('ref_axis',(1.,0.,-3.66594702740232E-45));
#933=DIRECTION('',(0.,-1.,0.));
#934=DIRECTION('center_axis',(0.,1.,0.));
#935=DIRECTION('ref_axis',(1.,0.,-3.66594702740232E-45));
#936=DIRECTION('center_axis',(3.66594702740232E-45,-1.85037170770859E-15,
1.));
#937=DIRECTION('ref_axis',(-1.,1.96948217338592E-31,4.03037443664929E-45));
#938=DIRECTION('',(3.66594702740232E-45,-1.85037170770859E-15,1.));
#939=DIRECTION('center_axis',(-1.06437106006674E-16,1.79166390620108E-15,
-1.));
#940=DIRECTION('ref_axis',(-1.,7.73346126703037E-39,1.06437106006674E-16));
#941=DIRECTION('',(3.66594702740232E-45,-1.77635683940025E-15,1.));
#942=DIRECTION('center_axis',(1.06437106006674E-16,-1.79166390620108E-15,
1.));
#943=DIRECTION('ref_axis',(-1.,7.73346126703037E-39,1.06437106006674E-16));
#944=DIRECTION('center_axis',(-3.66594702740232E-45,1.66533453693774E-15,
-1.));
#945=DIRECTION('ref_axis',(-1.,1.86863617987563E-31,3.97713746413415E-45));
#946=DIRECTION('',(0.707106781186548,1.09097373838928E-15,-0.707106781186547));
#947=DIRECTION('center_axis',(1.06437106006674E-16,-1.79166390620108E-15,
1.));
#948=DIRECTION('ref_axis',(-1.,6.24869622593582E-33,1.06437106006674E-16));
#949=DIRECTION('center_axis',(1.06437106006674E-16,-1.79166390620108E-15,
1.));
#950=DIRECTION('ref_axis',(-1.,6.24869622593582E-33,1.06437106006674E-16));
#951=DIRECTION('center_axis',(3.66594702740232E-45,-1.85037170770859E-15,
1.));
#952=DIRECTION('ref_axis',(-1.,1.96948217338592E-31,4.03037443664929E-45));
#953=DIRECTION('center_axis',(-1.06437106006674E-16,1.79166390620108E-15,
-1.));
#954=DIRECTION('ref_axis',(-1.,7.73346126703037E-39,1.06437106006674E-16));
#955=DIRECTION('center_axis',(-1.06437106006674E-16,1.79166390620108E-15,
-1.));
#956=DIRECTION('ref_axis',(-1.,7.73346126703037E-39,1.06437106006674E-16));
#957=DIRECTION('',(3.66594702740232E-45,-1.85037170770859E-15,1.));
#958=DIRECTION('center_axis',(-1.06437106006674E-16,1.79166390620108E-15,
-1.));
#959=DIRECTION('ref_axis',(-1.,7.73346126703037E-39,1.06437106006674E-16));
#960=DIRECTION('center_axis',(-3.66594702740232E-45,1.66533453693774E-15,
-1.));
#961=DIRECTION('ref_axis',(-1.,1.86863617987563E-31,3.97713746413415E-45));
#962=DIRECTION('',(0.707106781186548,1.09097373838928E-15,-0.707106781186547));
#963=DIRECTION('center_axis',(1.06437106006674E-16,-1.79166390620108E-15,
1.));
#964=DIRECTION('ref_axis',(-1.,6.24869622593582E-33,1.06437106006674E-16));
#965=DIRECTION('center_axis',(3.66594702740232E-45,-1.85037170770859E-15,
1.));
#966=DIRECTION('ref_axis',(-1.,1.96948217338592E-31,4.03037443664929E-45));
#967=DIRECTION('center_axis',(-1.06437106006674E-16,1.79166390620108E-15,
-1.));
#968=DIRECTION('ref_axis',(-1.,7.73346126703037E-39,1.06437106006674E-16));
#969=DIRECTION('',(3.66594702740232E-45,-1.85037170770859E-15,1.));
#970=DIRECTION('center_axis',(1.06437106006674E-16,-1.79166390620108E-15,
1.));
#971=DIRECTION('ref_axis',(-1.,7.73346126703037E-39,1.06437106006674E-16));
#972=DIRECTION('center_axis',(-1.,1.90699528846117E-31,4.01881204025253E-45));
#973=DIRECTION('ref_axis',(1.90699528846117E-31,1.,1.79166390620108E-15));
#974=DIRECTION('',(-1.90699528846117E-31,-1.,-1.79166390620108E-15));
#975=DIRECTION('',(1.90699528846117E-31,1.,1.79166390620108E-15));
#976=DIRECTION('center_axis',(0.990497795656752,-0.137528603567097,-3.63111244963642E-45));
#977=DIRECTION('ref_axis',(-0.137528603567097,-0.990497795656752,5.04172575429591E-46));
#978=DIRECTION('',(0.137528603567097,0.990497795656752,-5.04172575429591E-46));
#979=DIRECTION('',(-3.66594702740232E-45,0.,-1.));
#980=DIRECTION('',(-0.137528603567097,-0.990497795656752,5.04172575429591E-46));
#981=DIRECTION('center_axis',(2.3475936827595E-11,-1.,-8.60615408286065E-56));
#982=DIRECTION('ref_axis',(-1.,-2.3475936827595E-11,-4.53801632955055E-16));
#983=DIRECTION('',(-1.,-2.3475936827595E-11,7.39163723225172E-32));
#984=DIRECTION('',(-1.,-2.3475936827595E-11,7.39163723225172E-32));
#985=DIRECTION('center_axis',(-7.39163723268095E-32,1.82839315762987E-31,
-1.));
#986=DIRECTION('ref_axis',(-1.,0.,7.39163723268095E-32));
#987=DIRECTION('center_axis',(-7.39163723268095E-32,1.82839315762987E-31,
-1.));
#988=DIRECTION('ref_axis',(-1.,0.,7.39163723268095E-32));
#989=CARTESIAN_POINT('',(0.,0.,0.));
#990=CARTESIAN_POINT('Origin',(-33.3058425814735,-13.0000000733119,-14.2));
#991=CARTESIAN_POINT('',(-34.4558425814735,-13.0000001487409,-14.2));
#992=CARTESIAN_POINT('Origin',(-33.3058425814735,-13.0000001462233,-14.2));
#993=CARTESIAN_POINT('',(-34.4558425814735,-7.00000007331185,-14.2));
#994=CARTESIAN_POINT('',(-34.4558425814735,-13.0000000733119,-14.2));
#995=CARTESIAN_POINT('Origin',(-33.3058425814735,-7.00000007331185,-14.2));
#996=CARTESIAN_POINT('Origin',(-33.3058425814735,-7.00000007331185,-14.2));
#997=CARTESIAN_POINT('Origin',(-24.0369556801986,-13.0000000733119,-14.2));
#998=CARTESIAN_POINT('',(-25.1869556801986,-13.0000001284499,-14.2));
#999=CARTESIAN_POINT('Origin',(-24.0369556801986,-13.0000001259324,-14.2));
#1000=CARTESIAN_POINT('',(-25.1869556801986,-7.00000007331185,-14.2));
#1001=CARTESIAN_POINT('',(-25.1869556801986,-13.0000000733119,-14.2));
#1002=CARTESIAN_POINT('Origin',(-24.0369556801986,-7.00000007331185,-14.2));
#1003=CARTESIAN_POINT('Origin',(-24.0369556801986,-7.00000007331185,-14.2));
#1004=CARTESIAN_POINT('Origin',(-49.5764066383877,-7.00000007331185,-14.2));
#1005=CARTESIAN_POINT('',(-49.0085158038076,-7.00000007331185,-13.2));
#1006=CARTESIAN_POINT('',(-50.1442974729678,-7.00000007331185,-13.2));
#1007=CARTESIAN_POINT('',(-47.1526865158575,-7.00000007331185,-13.2));
#1008=CARTESIAN_POINT('Origin',(-49.5764066383877,-7.00000007331185,-14.2));
#1009=CARTESIAN_POINT('Origin',(-49.5764066383877,-13.0000000733119,-14.2));
#1010=CARTESIAN_POINT('',(-50.7264066383877,-13.0000001843596,-14.2));
#1011=CARTESIAN_POINT('Origin',(-49.5764066383877,-13.0000001818421,-14.2));
#1012=CARTESIAN_POINT('',(-50.7264066383877,-8.73806995646462,-14.2));
#1013=CARTESIAN_POINT('',(-50.7264066383877,-13.0000000733119,-14.2));
#1014=CARTESIAN_POINT('',(-50.1442974729677,-9.37365437001095,-13.2));
#1015=CARTESIAN_POINT('Ctrl Pts',(-50.1442974729678,-9.37365437001084,-13.2000000000001));
#1016=CARTESIAN_POINT('Ctrl Pts',(-50.2556698493775,-9.26486813251129,-13.2632473517885));
#1017=CARTESIAN_POINT('Ctrl Pts',(-50.3565016574205,-9.15958568308493,-13.3454391476441));
#1018=CARTESIAN_POINT('Ctrl Pts',(-50.5192584647769,-8.98211035698803,-13.5309037334781));
#1019=CARTESIAN_POINT('Ctrl Pts',(-50.5933155770973,-8.89696735647967,-13.6449222032097));
#1020=CARTESIAN_POINT('Ctrl Pts',(-50.6710762080052,-8.80507044358507,-13.8406571859325));
#1021=CARTESIAN_POINT('Ctrl Pts',(-50.6916347308034,-8.78029742903349,-13.9100274097783));
#1022=CARTESIAN_POINT('Ctrl Pts',(-50.7192978171724,-8.74679302116905,-14.0530545366749));
#1023=CARTESIAN_POINT('Ctrl Pts',(-50.7264066383877,-8.73806995646462,-14.1267125670875));
#1024=CARTESIAN_POINT('Ctrl Pts',(-50.7264066383877,-8.73806995646462,-14.2));
#1025=CARTESIAN_POINT('',(-50.1442974729677,-13.0000000733119,-13.2));
#1026=CARTESIAN_POINT('',(-49.0085158038076,-10.2908523178168,-13.2));
#1027=CARTESIAN_POINT('',(-49.0085158038077,-13.0000000733119,-13.2));
#1028=CARTESIAN_POINT('Ctrl Pts',(-50.7264066383877,-8.73806995646462,-14.2));
#1029=CARTESIAN_POINT('Ctrl Pts',(-50.7264066383877,-8.73806995646462,-14.2732874329125));
#1030=CARTESIAN_POINT('Ctrl Pts',(-50.7192978171724,-8.74679302116905,-14.3469454633251));
#1031=CARTESIAN_POINT('Ctrl Pts',(-50.6916347308034,-8.78029742903349,-14.4899725902217));
#1032=CARTESIAN_POINT('Ctrl Pts',(-50.6710762080052,-8.80507044358508,-14.5593428140675));
#1033=CARTESIAN_POINT('Ctrl Pts',(-50.5933155770973,-8.89696735647967,-14.7550777967903));
#1034=CARTESIAN_POINT('Ctrl Pts',(-50.5192584647769,-8.98211035698804,-14.8690962665219));
#1035=CARTESIAN_POINT('Ctrl Pts',(-50.3326707929168,-9.18557163425746,-15.081716591566));
#1036=CARTESIAN_POINT('Ctrl Pts',(-50.1971156479266,-9.32541757375578,-15.1818969938124));
#1037=CARTESIAN_POINT('Ctrl Pts',(-49.8978685673294,-9.60775799199658,-15.3162721897098));
#1038=CARTESIAN_POINT('Ctrl Pts',(-49.7339199790239,-9.75020244884781,-15.35));
#1039=CARTESIAN_POINT('Ctrl Pts',(-49.4374671157775,-9.98785165904744,-15.35));
#1040=CARTESIAN_POINT('Ctrl Pts',(-49.2829796714468,-10.102992649692,-15.3233508073249));
#1041=CARTESIAN_POINT('Ctrl Pts',(-48.9879211064433,-10.3069290237349,-15.2008502999881));
#1042=CARTESIAN_POINT('Ctrl Pts',(-48.8476041178813,-10.3959043134365,-15.1046867759192));
#1043=CARTESIAN_POINT('Ctrl Pts',(-48.6457059148984,-10.5178305766646,-14.8881581624863));
#1044=CARTESIAN_POINT('Ctrl Pts',(-48.5642271895898,-10.5643636954058,-14.7653654907313));
#1045=CARTESIAN_POINT('Ctrl Pts',(-48.4544970679329,-10.6256787766663,-14.4923431182413));
#1046=CARTESIAN_POINT('Ctrl Pts',(-48.4264066383877,-10.6407123035711,-14.3421053013182));
#1047=CARTESIAN_POINT('Ctrl Pts',(-48.4264066383877,-10.6407123035711,-14.0578946986818));
#1048=CARTESIAN_POINT('Ctrl Pts',(-48.4544970679329,-10.6256787766663,-13.9076568817587));
#1049=CARTESIAN_POINT('Ctrl Pts',(-48.5642271895898,-10.5643636954058,-13.6346345092687));
#1050=CARTESIAN_POINT('Ctrl Pts',(-48.6457059148984,-10.5178305766646,-13.5118418375137));
#1051=CARTESIAN_POINT('Ctrl Pts',(-48.8148158620674,-10.4157051311263,-13.3304774576568));
#1052=CARTESIAN_POINT('Ctrl Pts',(-48.9082407070059,-10.3572684410669,-13.2569453084105));
#1053=CARTESIAN_POINT('Ctrl Pts',(-49.0085158038066,-10.2908523178175,-13.2000000000006));
#1054=CARTESIAN_POINT('Origin',(-44.7289663933273,-3.82958643230669,-13.2));
#1055=CARTESIAN_POINT('',(-36.9789663933273,-3.82958643230669,-13.2));
#1056=CARTESIAN_POINT('Origin',(-44.7289663933273,-3.82958643230669,-13.2));
#1057=CARTESIAN_POINT('Origin',(-44.7289663933273,-3.82958643230669,-13.2));
#1058=CARTESIAN_POINT('',(-38.9789663933273,-3.82958643230669,-13.2));
#1059=CARTESIAN_POINT('Origin',(-39.9789663933273,-3.82958643230669,-13.2));
#1060=CARTESIAN_POINT('',(-42.2940010131229,-3.82958643230668,-13.2));
#1061=CARTESIAN_POINT('Origin',(-44.7289663933273,-3.82958643230669,-13.2));
#1062=CARTESIAN_POINT('',(-48.4789663933273,-3.82958643230669,-13.2));
#1063=CARTESIAN_POINT('Origin',(-49.4789663933273,-3.82958643230669,-13.2));
#1064=CARTESIAN_POINT('Origin',(-29.3873240021941,3.18120273220922,-13.2));
#1065=CARTESIAN_POINT('',(-23.4110725591161,8.4995124908739,-10.2));
#1066=CARTESIAN_POINT('',(-23.4110725591161,8.4995124908739,-18.2));
#1067=CARTESIAN_POINT('',(-23.4110725591161,8.4995124908739,-13.2));
#1068=CARTESIAN_POINT('',(-21.3873240021941,3.18120273220922,-10.2));
#1069=CARTESIAN_POINT('Origin',(-29.3873240021941,3.18120273220922,-10.2));
#1070=CARTESIAN_POINT('',(-21.3873240021941,3.18120273220921,-18.2));
#1071=CARTESIAN_POINT('',(-21.3873240021941,3.18120273220922,-13.2));
#1072=CARTESIAN_POINT('Origin',(-29.3873240021941,3.18120273220921,-18.2));
#1073=CARTESIAN_POINT('Origin',(-39.9789663933273,-3.82958643230668,-11.2));
#1074=CARTESIAN_POINT('',(-38.9789663933273,-3.82958643230668,-12.2));
#1075=CARTESIAN_POINT('Origin',(-39.9789663933273,-3.82958643230668,-12.2));
#1076=CARTESIAN_POINT('',(-36.978966393325,-3.82958643230668,-10.1999999999977));
#1077=CARTESIAN_POINT('',(-37.9789663933273,-3.82958643230668,-11.2));
#1078=CARTESIAN_POINT('',(-42.6772236140858,-2.51832445595553,-10.2));
#1079=CARTESIAN_POINT('Origin',(-39.9789663933273,-3.82958643230668,-10.2));
#1080=CARTESIAN_POINT('',(-42.2940010131229,-3.82958643230668,-10.8849653802043));
#1081=CARTESIAN_POINT('Ctrl Pts',(-42.6772236140859,-2.51832445595555,-10.2));
#1082=CARTESIAN_POINT('Ctrl Pts',(-42.6228382388896,-2.60342171559373,-10.2861101773941));
#1083=CARTESIAN_POINT('Ctrl Pts',(-42.5735993340644,-2.69216845958305,-10.36782887726));
#1084=CARTESIAN_POINT('Ctrl Pts',(-42.4643474557314,-2.92185928686178,-10.5560453696925));
#1085=CARTESIAN_POINT('Ctrl Pts',(-42.4029902991019,-3.08609905595644,-10.669853422221));
#1086=CARTESIAN_POINT('Ctrl Pts',(-42.3176540803864,-3.44421413690603,-10.8354815356117));
#1087=CARTESIAN_POINT('Ctrl Pts',(-42.2940010131229,-3.63924281724822,-10.8849653802043));
#1088=CARTESIAN_POINT('Ctrl Pts',(-42.2940010131229,-3.82958643230668,-10.8849653802043));
#1089=CARTESIAN_POINT('',(-42.6772236140858,-5.14084840865782,-10.2));
#1090=CARTESIAN_POINT('Ctrl Pts',(-42.2940010131229,-3.82958643230668,-10.8849653802043));
#1091=CARTESIAN_POINT('Ctrl Pts',(-42.2940010131229,-4.01993004736514,-10.8849653802043));
#1092=CARTESIAN_POINT('Ctrl Pts',(-42.3176540803864,-4.21495872770733,-10.8354815356117));
#1093=CARTESIAN_POINT('Ctrl Pts',(-42.4029902991019,-4.57307380865692,-10.669853422221));
#1094=CARTESIAN_POINT('Ctrl Pts',(-42.4643474557314,-4.73731357775158,-10.5560453696925));
#1095=CARTESIAN_POINT('Ctrl Pts',(-42.5735993340648,-4.96700440503112,-10.3678288772593));
#1096=CARTESIAN_POINT('Ctrl Pts',(-42.6228382388905,-5.0557511490212,-10.2861101773926));
#1097=CARTESIAN_POINT('Ctrl Pts',(-42.6772236140873,-5.14084840866007,-10.1999999999977));
#1098=CARTESIAN_POINT('Origin',(-39.9789663933273,-3.82958643230668,-10.2));
#1099=CARTESIAN_POINT('Origin',(-44.7289663933273,-3.82958643230669,-13.2));
#1100=CARTESIAN_POINT('',(-42.294001013123,-3.82958643230669,-13.2));
#1101=CARTESIAN_POINT('',(-46.7807091725687,-2.51832445595553,-10.2));
#1102=CARTESIAN_POINT('Origin',(-44.7289663933273,-3.82958643230668,-10.2));
#1103=CARTESIAN_POINT('',(-47.1639317735317,-3.82958643230668,-10.8849653802044));
#1104=CARTESIAN_POINT('Ctrl Pts',(-46.7807091725673,-2.51832445595326,-10.1999999999977));
#1105=CARTESIAN_POINT('Ctrl Pts',(-46.8350945477641,-2.60342171559213,-10.2861101773926));
#1106=CARTESIAN_POINT('Ctrl Pts',(-46.8843334525898,-2.69216845958223,-10.3678288772593));
#1107=CARTESIAN_POINT('Ctrl Pts',(-46.9935853309232,-2.92185928686178,-10.5560453696925));
#1108=CARTESIAN_POINT('Ctrl Pts',(-47.0549424875527,-3.08609905595644,-10.669853422221));
#1109=CARTESIAN_POINT('Ctrl Pts',(-47.1402787062682,-3.44421413690603,-10.8354815356117));
#1110=CARTESIAN_POINT('Ctrl Pts',(-47.1639317735317,-3.63924281724822,-10.8849653802044));
#1111=CARTESIAN_POINT('Ctrl Pts',(-47.1639317735317,-3.82958643230668,-10.8849653802044));
#1112=CARTESIAN_POINT('',(-46.7807091725687,-5.14084840865782,-10.2));
#1113=CARTESIAN_POINT('Ctrl Pts',(-47.1639317735317,-3.82958643230668,-10.8849653802044));
#1114=CARTESIAN_POINT('Ctrl Pts',(-47.1639317735317,-4.01993004736514,-10.8849653802044));
#1115=CARTESIAN_POINT('Ctrl Pts',(-47.1402787062682,-4.21495872770733,-10.8354815356117));
#1116=CARTESIAN_POINT('Ctrl Pts',(-47.0549424875527,-4.57307380865692,-10.669853422221));
#1117=CARTESIAN_POINT('Ctrl Pts',(-46.9935853309232,-4.73731357775158,-10.5560453696925));
#1118=CARTESIAN_POINT('Ctrl Pts',(-46.8843334525902,-4.96700440503032,-10.36782887726));
#1119=CARTESIAN_POINT('Ctrl Pts',(-46.835094547765,-5.05575114901965,-10.2861101773941));
#1120=CARTESIAN_POINT('Ctrl Pts',(-46.7807091725687,-5.14084840865784,-10.2));
#1121=CARTESIAN_POINT('Origin',(-44.7289663933273,-3.82958643230668,-10.2));
#1122=CARTESIAN_POINT('Origin',(-39.9789663933273,-3.82958643230669,-13.2));
#1123=CARTESIAN_POINT('',(-38.9789663933273,-3.82958643230669,-13.2));
#1124=CARTESIAN_POINT('Origin',(-49.4789663933273,-3.82958643230668,-11.2));
#1125=CARTESIAN_POINT('',(-48.4789663933273,-3.82958643230668,-12.2));
#1126=CARTESIAN_POINT('Origin',(-49.4789663933273,-3.82958643230668,-12.2));
#1127=CARTESIAN_POINT('',(-47.4789663933273,-3.82958643230668,-11.2));
#1128=CARTESIAN_POINT('Origin',(-49.4789663933273,-3.82958643230668,-10.2));
#1129=CARTESIAN_POINT('Origin',(-49.4789663933273,-3.82958643230669,-13.2));
#1130=CARTESIAN_POINT('',(-48.4789663933273,-3.82958643230669,-13.2));
#1131=CARTESIAN_POINT('Origin',(-44.7289663933273,-3.82958643230669,-13.2));
#1132=CARTESIAN_POINT('',(-36.9789663933273,-3.82958643230669,-18.2));
#1133=CARTESIAN_POINT('Origin',(-44.7289663933273,-3.82958643230669,-18.2));
#1134=CARTESIAN_POINT('',(-36.9789663933273,-3.82958643230669,-13.2));
#1135=CARTESIAN_POINT('Origin',(-29.3873240021941,3.18120273220922,-13.2));
#1136=CARTESIAN_POINT('',(-26.8873240021941,3.18120273220921,-18.2));
#1137=CARTESIAN_POINT('Origin',(-29.3873240021941,3.18120273220921,-18.2));
#1138=CARTESIAN_POINT('',(-26.8873240021941,3.18120273220922,-10.2));
#1139=CARTESIAN_POINT('',(-26.8873240021941,3.18120273220922,-13.2));
#1140=CARTESIAN_POINT('Origin',(-29.3873240021941,3.18120273220922,-10.2));
#1141=CARTESIAN_POINT('Origin',(-21.3873240021941,-13.0000001201319,-13.2));
#1142=CARTESIAN_POINT('',(-21.3873240021941,-13.0000001201319,-10.2));
#1143=CARTESIAN_POINT('',(-21.3873240021941,3.18120273220922,-10.2));
#1144=CARTESIAN_POINT('',(-21.3873240021941,-13.0000001201319,-18.2));
#1145=CARTESIAN_POINT('',(-21.3873240021941,-13.0000001201319,-13.2));
#1146=CARTESIAN_POINT('',(-21.3873240021941,3.18120273220921,-18.2));
#1147=CARTESIAN_POINT('Origin',(-55.0000008195639,-13.0000001937151,-13.2));
#1148=CARTESIAN_POINT('',(-55.0000008195639,-13.0000001937151,-10.2));
#1149=CARTESIAN_POINT('',(-21.3873240021941,-13.0000001201319,-10.2));
#1150=CARTESIAN_POINT('',(-55.0000008195639,-13.0000001937151,-18.2));
#1151=CARTESIAN_POINT('',(-55.0000008195639,-13.0000001937151,-13.2));
#1152=CARTESIAN_POINT('',(-21.3873240021941,-13.0000001201319,-18.2));
#1153=CARTESIAN_POINT('Origin',(-51.1817494364905,14.499512490222,-18.2));
#1154=CARTESIAN_POINT('',(-52.0148372283297,8.4995124902024,-18.2));
#1155=CARTESIAN_POINT('',(-54.1502360070102,-6.87989025418217,-18.2));
#1156=CARTESIAN_POINT('',(-52.0148372283297,8.4995124902024,-10.2));
#1157=CARTESIAN_POINT('',(-54.1502360070102,-6.87989025418217,-10.2));
#1158=CARTESIAN_POINT('',(-52.0148372283297,8.4995124902024,-18.2));
#1159=CARTESIAN_POINT('Origin',(-31.5328953342682,8.49951249068323,-18.2));
#1160=CARTESIAN_POINT('',(-35.1764325804854,8.49951249059769,-18.2));
#1161=CARTESIAN_POINT('',(-35.1764325804854,8.49951249059769,-10.2));
#1162=CARTESIAN_POINT('Origin',(-38.8199698267004,8.4074924550139,-18.2));
#1163=CARTESIAN_POINT('Origin',(-38.8199698267004,8.4074924550139,-10.2));
#1164=CARTESIAN_POINT('Origin',(-49.5764066383877,-13.0000000733119,7.4));
#1165=CARTESIAN_POINT('',(-50.1442974729677,-9.37365437001095,6.4));
#1166=CARTESIAN_POINT('',(-50.7264066383877,-8.73806995646462,7.4));
#1167=CARTESIAN_POINT('Ctrl Pts',(-50.7264066383877,-8.73806995646462,7.4));
#1168=CARTESIAN_POINT('Ctrl Pts',(-50.7264066383877,-8.73806995646462,7.31559241645935));
#1169=CARTESIAN_POINT('Ctrl Pts',(-50.7170271712145,-8.7495887309371,7.2320251173217));
#1170=CARTESIAN_POINT('Ctrl Pts',(-50.6815912315655,-8.7923988975544,7.07162886528646));
#1171=CARTESIAN_POINT('Ctrl Pts',(-50.6555190993786,-8.82368168023922,6.99480107466252));
#1172=CARTESIAN_POINT('Ctrl Pts',(-50.5578423172661,-8.93808550839357,6.78035193833284));
#1173=CARTESIAN_POINT('Ctrl Pts',(-50.4658359430977,-9.04215030002389,6.65883514302924));
#1174=CARTESIAN_POINT('Ctrl Pts',(-50.3008194426068,-9.21723834499428,6.50192437961974));
#1175=CARTESIAN_POINT('Ctrl Pts',(-50.2254046808777,-9.29443052414312,6.44606003999042));
#1176=CARTESIAN_POINT('Ctrl Pts',(-50.1442974729677,-9.37365437001097,6.39999999999999));
#1177=CARTESIAN_POINT('',(-50.7264066383877,-13.0000001846821,7.4));
#1178=CARTESIAN_POINT('',(-50.7264066383877,-13.0000000733119,7.4));
#1179=CARTESIAN_POINT('Origin',(-49.5764066383877,-13.0000001818421,7.4));
#1180=CARTESIAN_POINT('Ctrl Pts',(-50.1442974729677,-9.37365437001097,6.39999999999999));
#1181=CARTESIAN_POINT('Ctrl Pts',(-50.0352255701887,-9.48019355237164,6.33805906610156));
#1182=CARTESIAN_POINT('Ctrl Pts',(-49.9157878293468,-9.59036326086995,6.29389921752743));
#1183=CARTESIAN_POINT('Ctrl Pts',(-49.5733676505388,-9.88572939750391,6.22886611042386));
#1184=CARTESIAN_POINT('Ctrl Pts',(-49.338648615324,-10.0651197672315,6.25063306462855));
#1185=CARTESIAN_POINT('Ctrl Pts',(-49.0287861090174,-10.2783946163829,6.38357582607668));
#1186=CARTESIAN_POINT('Ctrl Pts',(-48.9291230837247,-10.3436132859533,6.44218994743625));
#1187=CARTESIAN_POINT('Ctrl Pts',(-48.7483814101103,-10.4566645911968,6.59330899136289));
#1188=CARTESIAN_POINT('Ctrl Pts',(-48.6675012328375,-10.5045833043296,6.68598676872025));
#1189=CARTESIAN_POINT('Ctrl Pts',(-48.5518160829008,-10.5714075883608,6.86828308906817));
#1190=CARTESIAN_POINT('Ctrl Pts',(-48.5044478950113,-10.597859727948,6.96897445078552));
#1191=CARTESIAN_POINT('Ctrl Pts',(-48.441701324047,-10.6324816442582,7.1824627254421));
#1192=CARTESIAN_POINT('Ctrl Pts',(-48.4264066383877,-10.6407123035711,7.29527435170358));
#1193=CARTESIAN_POINT('Ctrl Pts',(-48.4264066383877,-10.6407123035711,7.4));
#1194=CARTESIAN_POINT('Ctrl Pts',(-48.4264066383877,-10.6407123035711,7.50472564829641));
#1195=CARTESIAN_POINT('Ctrl Pts',(-48.441701324047,-10.6324816442582,7.61753727455789));
#1196=CARTESIAN_POINT('Ctrl Pts',(-48.5044478950113,-10.597859727948,7.83102554921448));
#1197=CARTESIAN_POINT('Ctrl Pts',(-48.5518160829008,-10.5714075883608,7.93171691093183));
#1198=CARTESIAN_POINT('Ctrl Pts',(-48.6675012328375,-10.5045833043296,8.11401323127974));
#1199=CARTESIAN_POINT('Ctrl Pts',(-48.7483814101103,-10.4566645911968,8.2066910086371));
#1200=CARTESIAN_POINT('Ctrl Pts',(-48.9291230837247,-10.3436132859533,8.35781005256374));
#1201=CARTESIAN_POINT('Ctrl Pts',(-49.0287861090174,-10.2783946163829,8.41642417392332));
#1202=CARTESIAN_POINT('Ctrl Pts',(-49.338648615324,-10.0651197672315,8.54936693537145));
#1203=CARTESIAN_POINT('Ctrl Pts',(-49.5733676505388,-9.88572939750392,8.57113388957614));
#1204=CARTESIAN_POINT('Ctrl Pts',(-50.0085953500743,-9.51030898678116,8.48847459742561));
#1205=CARTESIAN_POINT('Ctrl Pts',(-50.2093280325941,-9.31431380146713,8.38507290215386));
#1206=CARTESIAN_POINT('Ctrl Pts',(-50.4658359430977,-9.04215030002389,8.14116485697076));
#1207=CARTESIAN_POINT('Ctrl Pts',(-50.5578423172661,-8.93808550839357,8.01964806166716));
#1208=CARTESIAN_POINT('Ctrl Pts',(-50.6555190993786,-8.82368168023922,7.80519892533748));
#1209=CARTESIAN_POINT('Ctrl Pts',(-50.6815912315655,-8.7923988975544,7.72837113471353));
#1210=CARTESIAN_POINT('Ctrl Pts',(-50.7170271712145,-8.74958873093711,7.56797488267829));
#1211=CARTESIAN_POINT('Ctrl Pts',(-50.7264066383877,-8.73806995646462,7.48440758354064));
#1212=CARTESIAN_POINT('Ctrl Pts',(-50.7264066383877,-8.73806995646462,7.4));
#1213=CARTESIAN_POINT('Origin',(-44.7289663933273,-3.82958643230669,6.4));
#1214=CARTESIAN_POINT('Origin',(-55.0000008195639,-13.0000001937151,6.4));
#1215=CARTESIAN_POINT('',(-21.3873240021941,-13.0000001201319,11.4));
#1216=CARTESIAN_POINT('',(-55.0000008195639,-13.0000001937151,11.4));
#1217=CARTESIAN_POINT('',(-21.3873240021941,-13.0000001201319,11.4));
#1218=CARTESIAN_POINT('',(-55.0000008195639,-13.0000001937151,3.4));
#1219=CARTESIAN_POINT('',(-55.0000008195639,-13.0000001937151,6.4));
#1220=CARTESIAN_POINT('',(-21.3873240021941,-13.0000001201319,3.4));
#1221=CARTESIAN_POINT('',(-21.3873240021941,-13.0000001201319,3.4));
#1222=CARTESIAN_POINT('',(-21.3873240021941,-13.0000001201319,6.4));
#1223=CARTESIAN_POINT('',(-34.4558425814735,-13.0000001487409,7.4));
#1224=CARTESIAN_POINT('Origin',(-33.3058425814735,-13.0000001462233,7.4));
#1225=CARTESIAN_POINT('',(-25.1869556801986,-13.0000001284499,7.4));
#1226=CARTESIAN_POINT('Origin',(-24.0369556801986,-13.0000001259324,7.4));
#1227=CARTESIAN_POINT('Origin',(-33.3058425814735,-13.0000000733119,7.4));
#1228=CARTESIAN_POINT('',(-34.4558425814735,-7.00000007331185,7.4));
#1229=CARTESIAN_POINT('Origin',(-33.3058425814735,-7.00000007331185,7.4));
#1230=CARTESIAN_POINT('',(-34.4558425814735,-13.0000000733119,7.4));
#1231=CARTESIAN_POINT('Origin',(-33.3058425814735,-7.00000007331185,7.4));
#1232=CARTESIAN_POINT('Origin',(-24.0369556801986,-13.0000000733119,7.4));
#1233=CARTESIAN_POINT('',(-25.1869556801986,-7.00000007331185,7.4));
#1234=CARTESIAN_POINT('Origin',(-24.0369556801986,-7.00000007331185,7.4));
#1235=CARTESIAN_POINT('',(-25.1869556801986,-13.0000000733119,7.4));
#1236=CARTESIAN_POINT('Origin',(-24.0369556801986,-7.00000007331185,7.4));
#1237=CARTESIAN_POINT('Origin',(-29.3873240021941,3.18120273220922,6.4));
#1238=CARTESIAN_POINT('',(-23.4110725591161,8.4995124908739,3.4));
#1239=CARTESIAN_POINT('',(-23.4110725591161,8.4995124908739,11.4));
#1240=CARTESIAN_POINT('',(-23.4110725591161,8.4995124908739,6.4));
#1241=CARTESIAN_POINT('',(-21.3873240021941,3.18120273220921,11.4));
#1242=CARTESIAN_POINT('Origin',(-29.3873240021941,3.18120273220921,11.4));
#1243=CARTESIAN_POINT('',(-21.3873240021941,3.18120273220922,3.4));
#1244=CARTESIAN_POINT('',(-21.3873240021941,3.18120273220922,6.4));
#1245=CARTESIAN_POINT('Origin',(-29.3873240021941,3.18120273220922,3.4));
#1246=CARTESIAN_POINT('Origin',(-39.9789663933273,-3.82958643230668,4.4));
#1247=CARTESIAN_POINT('',(-39.9789663933273,-3.82958643230668,6.4));
#1248=CARTESIAN_POINT('',(-36.978966393325,-3.82958643230668,3.39999999999772));
#1249=CARTESIAN_POINT('',(-37.9789663933273,-3.82958643230668,4.4));
#1250=CARTESIAN_POINT('',(-42.6772236140858,-5.14084840865782,3.4));
#1251=CARTESIAN_POINT('Origin',(-39.9789663933273,-3.82958643230668,3.4));
#1252=CARTESIAN_POINT('',(-42.2940010131229,-3.82958643230668,4.08496538020434));
#1253=CARTESIAN_POINT('Ctrl Pts',(-42.6772236140858,-5.1408484086578,3.40000000000002));
#1254=CARTESIAN_POINT('Ctrl Pts',(-42.6228382388896,-5.05575114901963,3.48611017739406));
#1255=CARTESIAN_POINT('Ctrl Pts',(-42.5735993340644,-4.96700440503031,3.56782887725999));
#1256=CARTESIAN_POINT('Ctrl Pts',(-42.4643474557314,-4.73731357775158,3.75604536969249));
#1257=CARTESIAN_POINT('Ctrl Pts',(-42.4029902991019,-4.57307380865692,3.86985342222103));
#1258=CARTESIAN_POINT('Ctrl Pts',(-42.3176540803864,-4.21495872770733,4.0354815356117));
#1259=CARTESIAN_POINT('Ctrl Pts',(-42.2940010131229,-4.01993004736514,4.08496538020434));
#1260=CARTESIAN_POINT('Ctrl Pts',(-42.2940010131229,-3.82958643230668,4.08496538020434));
#1261=CARTESIAN_POINT('',(-42.6772236140858,-2.51832445595553,3.4));
#1262=CARTESIAN_POINT('Ctrl Pts',(-42.2940010131229,-3.82958643230668,4.08496538020434));
#1263=CARTESIAN_POINT('Ctrl Pts',(-42.2940010131229,-3.63924281724822,4.08496538020434));
#1264=CARTESIAN_POINT('Ctrl Pts',(-42.3176540803864,-3.44421413690603,4.0354815356117));
#1265=CARTESIAN_POINT('Ctrl Pts',(-42.4029902991019,-3.08609905595644,3.86985342222103));
#1266=CARTESIAN_POINT('Ctrl Pts',(-42.4643474557314,-2.92185928686178,3.7560453696925));
#1267=CARTESIAN_POINT('Ctrl Pts',(-42.5735993340648,-2.69216845958224,3.56782887725933));
#1268=CARTESIAN_POINT('Ctrl Pts',(-42.6228382388905,-2.60342171559216,3.48611017739261));
#1269=CARTESIAN_POINT('Ctrl Pts',(-42.6772236140873,-2.51832445595329,3.39999999999772));
#1270=CARTESIAN_POINT('Origin',(-39.9789663933273,-3.82958643230668,3.4));
#1271=CARTESIAN_POINT('Origin',(-44.7289663933273,-3.82958643230669,6.4));
#1272=CARTESIAN_POINT('',(-46.7807091725687,-5.14084840865782,3.4));
#1273=CARTESIAN_POINT('Origin',(-44.7289663933273,-3.82958643230668,3.4));
#1274=CARTESIAN_POINT('',(-47.1639317735317,-3.82958643230668,4.08496538020435));
#1275=CARTESIAN_POINT('Ctrl Pts',(-46.7807091725673,-5.1408484086601,3.3999999999977));
#1276=CARTESIAN_POINT('Ctrl Pts',(-46.8350945477641,-5.05575114902122,3.4861101773926));
#1277=CARTESIAN_POINT('Ctrl Pts',(-46.8843334525898,-4.96700440503113,3.56782887725932));
#1278=CARTESIAN_POINT('Ctrl Pts',(-46.9935853309232,-4.73731357775158,3.7560453696925));
#1279=CARTESIAN_POINT('Ctrl Pts',(-47.0549424875527,-4.57307380865692,3.86985342222104));
#1280=CARTESIAN_POINT('Ctrl Pts',(-47.1402787062682,-4.21495872770733,4.03548153561171));
#1281=CARTESIAN_POINT('Ctrl Pts',(-47.1639317735317,-4.01993004736514,4.08496538020435));
#1282=CARTESIAN_POINT('Ctrl Pts',(-47.1639317735317,-3.82958643230668,4.08496538020435));
#1283=CARTESIAN_POINT('',(-46.7807091725687,-2.51832445595553,3.4));
#1284=CARTESIAN_POINT('Ctrl Pts',(-47.1639317735317,-3.82958643230668,4.08496538020435));
#1285=CARTESIAN_POINT('Ctrl Pts',(-47.1639317735317,-3.63924281724822,4.08496538020435));
#1286=CARTESIAN_POINT('Ctrl Pts',(-47.1402787062682,-3.44421413690603,4.03548153561171));
#1287=CARTESIAN_POINT('Ctrl Pts',(-47.0549424875527,-3.08609905595644,3.86985342222104));
#1288=CARTESIAN_POINT('Ctrl Pts',(-46.9935853309232,-2.92185928686178,3.75604536969251));
#1289=CARTESIAN_POINT('Ctrl Pts',(-46.8843334525902,-2.69216845958304,3.56782887726));
#1290=CARTESIAN_POINT('Ctrl Pts',(-46.835094547765,-2.60342171559371,3.48611017739405));
#1291=CARTESIAN_POINT('Ctrl Pts',(-46.7807091725687,-2.51832445595552,3.39999999999999));
#1292=CARTESIAN_POINT('Origin',(-44.7289663933273,-3.82958643230668,3.4));
#1293=CARTESIAN_POINT('',(-42.2940010131229,-3.82958643230669,11.4));
#1294=CARTESIAN_POINT('',(-42.294001013123,-3.82958643230669,6.4));
#1295=CARTESIAN_POINT('Origin',(-44.7289663933273,-3.8295864323067,11.4));
#1296=CARTESIAN_POINT('Origin',(-49.4789663933273,-3.82958643230668,4.4));
#1297=CARTESIAN_POINT('',(-49.4789663933273,-3.82958643230668,6.4));
#1298=CARTESIAN_POINT('',(-47.4789663933273,-3.82958643230668,4.4));
#1299=CARTESIAN_POINT('Origin',(-49.4789663933273,-3.82958643230668,3.4));
#1300=CARTESIAN_POINT('Origin',(-29.3873240021941,3.18120273220922,6.4));
#1301=CARTESIAN_POINT('',(-26.8873240021941,3.18120273220922,3.4));
#1302=CARTESIAN_POINT('Origin',(-29.3873240021941,3.18120273220922,3.4));
#1303=CARTESIAN_POINT('',(-26.8873240021941,3.18120273220921,11.4));
#1304=CARTESIAN_POINT('',(-26.8873240021941,3.18120273220922,6.4));
#1305=CARTESIAN_POINT('Origin',(-29.3873240021941,3.18120273220921,11.4));
#1306=CARTESIAN_POINT('Origin',(-21.3873240021941,-13.0000001201319,6.4));
#1307=CARTESIAN_POINT('',(-21.3873240021941,3.18120273220921,11.4));
#1308=CARTESIAN_POINT('',(-21.3873240021941,3.18120273220922,3.4));
#1309=CARTESIAN_POINT('Origin',(-51.1817494364905,14.499512490222,11.4));
#1310=CARTESIAN_POINT('',(-52.0148372283297,8.4995124902024,11.4));
#1311=CARTESIAN_POINT('',(-54.1502360070102,-6.87989025418217,11.4));
#1312=CARTESIAN_POINT('',(-52.0148372283297,8.4995124902024,3.4));
#1313=CARTESIAN_POINT('',(-52.0148372283297,8.4995124902024,11.4));
#1314=CARTESIAN_POINT('',(-54.1502360070102,-6.87989025418217,3.4));
#1315=CARTESIAN_POINT('Origin',(-31.5328953342682,8.49951249068323,11.4));
#1316=CARTESIAN_POINT('',(-35.1764325804854,8.49951249059769,3.4));
#1317=CARTESIAN_POINT('',(-35.1764325804854,8.49951249059769,11.4));
#1318=CARTESIAN_POINT('Origin',(-38.8199698267004,8.4074924550139,11.4));
#1319=CARTESIAN_POINT('Origin',(-38.8199698267004,8.4074924550139,3.4));
#1320=UNCERTAINTY_MEASURE_WITH_UNIT(LENGTH_MEASURE(0.01),#1324,
'DISTANCE_ACCURACY_VALUE',
'Maximum model space distance between geometric entities at asserted c
onnectivities');
#1321=UNCERTAINTY_MEASURE_WITH_UNIT(LENGTH_MEASURE(0.01),#1324,
'DISTANCE_ACCURACY_VALUE',
'Maximum model space distance between geometric entities at asserted c
onnectivities');
#1322=(
GEOMETRIC_REPRESENTATION_CONTEXT(3)
GLOBAL_UNCERTAINTY_ASSIGNED_CONTEXT((#1320))
GLOBAL_UNIT_ASSIGNED_CONTEXT((#1324,#1326,#1327))
REPRESENTATION_CONTEXT('','3D')
);
#1323=(
GEOMETRIC_REPRESENTATION_CONTEXT(3)
GLOBAL_UNCERTAINTY_ASSIGNED_CONTEXT((#1321))
GLOBAL_UNIT_ASSIGNED_CONTEXT((#1324,#1326,#1327))
REPRESENTATION_CONTEXT('','3D')
);
#1324=(
LENGTH_UNIT()
NAMED_UNIT(*)
SI_UNIT(.MILLI.,.METRE.)
);
#1325=(
LENGTH_UNIT()
NAMED_UNIT(*)
SI_UNIT($,.METRE.)
);
#1326=(
NAMED_UNIT(*)
PLANE_ANGLE_UNIT()
SI_UNIT($,.RADIAN.)
);
#1327=(
NAMED_UNIT(*)
SI_UNIT($,.STERADIAN.)
SOLID_ANGLE_UNIT()
);
#1328=SHAPE_DEFINITION_REPRESENTATION(#1329,#1330);
#1329=PRODUCT_DEFINITION_SHAPE('',$,#1332);
#1330=SHAPE_REPRESENTATION('',(#712),#1322);
#1331=PRODUCT_DEFINITION_CONTEXT('part definition',#1336,'design');
#1332=PRODUCT_DEFINITION('Component7','arm holder',#1333,#1331);
#1333=PRODUCT_DEFINITION_FORMATION('',$,#1338);
#1334=PRODUCT_RELATED_PRODUCT_CATEGORY('arm holder','arm holder',(#1338));
#1335=APPLICATION_PROTOCOL_DEFINITION('international standard',
'automotive_design',2009,#1336);
#1336=APPLICATION_CONTEXT(
'Core Data for Automotive Mechanical Design Process');
#1337=PRODUCT_CONTEXT('part definition',#1336,'mechanical');
#1338=PRODUCT('Component7','arm holder',$,(#1337));
#1339=PRESENTATION_STYLE_ASSIGNMENT((#1341));
#1340=PRESENTATION_STYLE_ASSIGNMENT((#1342));
#1341=SURFACE_STYLE_USAGE(.BOTH.,#1343);
#1342=SURFACE_STYLE_USAGE(.BOTH.,#1344);
#1343=SURFACE_SIDE_STYLE('',(#1345));
#1344=SURFACE_SIDE_STYLE('',(#1346));
#1345=SURFACE_STYLE_FILL_AREA(#1347);
#1346=SURFACE_STYLE_FILL_AREA(#1348);
#1347=FILL_AREA_STYLE('Steel - Satin',(#1349));
#1348=FILL_AREA_STYLE('Opaque(61,236,149)',(#1350));
#1349=FILL_AREA_STYLE_COLOUR('Steel - Satin',#1351);
#1350=FILL_AREA_STYLE_COLOUR('Opaque(61,236,149)',#1352);
#1351=COLOUR_RGB('Steel - Satin',0.627450980392157,0.627450980392157,0.627450980392157);
#1352=COLOUR_RGB('Opaque(61,236,149)',0.23921568627451,0.925490196078431,
0.584313725490196);
ENDSEC;
END-ISO-10303-21;
